<svg width="184" height="49" viewBox="0 0 184 49" fill="none" xmlns="http://www.w3.org/2000/svg">
<path d="M0 41.9642H0.673427L2.25689 45.8319H2.31149L3.89496 41.9642H4.56838V46.6236H4.04056V43.0836H3.99506L2.539 46.6236H2.02938L0.573323 43.0836H0.527821V46.6236H0V41.9642Z" fill="#FF3767"/>
<path d="M7.87247 46.7055C7.65103 46.7055 7.45007 46.6638 7.26958 46.5804C7.08908 46.4954 6.94575 46.3733 6.83958 46.2141C6.73341 46.0533 6.68033 45.8592 6.68033 45.6317C6.68033 45.4315 6.71976 45.2692 6.79863 45.1448C6.8775 45.0189 6.98291 44.9203 7.11487 44.849C7.24682 44.7777 7.39243 44.7247 7.55169 44.6898C7.71246 44.6534 7.87399 44.6246 8.03628 44.6033C8.24862 44.576 8.42077 44.5555 8.55273 44.5419C8.6862 44.5267 8.78327 44.5017 8.84394 44.4668C8.90612 44.4319 8.93722 44.3713 8.93722 44.2848V44.2666C8.93722 44.0421 8.87579 43.8677 8.75293 43.7433C8.6316 43.619 8.44731 43.5568 8.20009 43.5568C7.94376 43.5568 7.74279 43.6129 7.59719 43.7251C7.45158 43.8374 7.3492 43.9572 7.29005 44.0846L6.78043 43.9026C6.87143 43.6903 6.99277 43.5249 7.14444 43.4066C7.29763 43.2868 7.46447 43.2034 7.64497 43.1564C7.82697 43.1078 8.00595 43.0836 8.18189 43.0836C8.29412 43.0836 8.42305 43.0972 8.56865 43.1245C8.71577 43.1503 8.85759 43.2041 8.99409 43.286C9.13212 43.3679 9.24663 43.4916 9.33763 43.6569C9.42864 43.8222 9.47414 44.0436 9.47414 44.3212V46.6236H8.93722V46.1504H8.90992C8.87351 46.2262 8.81284 46.3074 8.72791 46.3938C8.64297 46.4803 8.52997 46.5538 8.38892 46.6145C8.24786 46.6752 8.07572 46.7055 7.87247 46.7055ZM7.95438 46.2232C8.16672 46.2232 8.34569 46.1815 8.4913 46.0981C8.63842 46.0146 8.74914 45.9069 8.82346 45.775C8.8993 45.643 8.93722 45.5043 8.93722 45.3587V44.8672C8.91447 44.8945 8.86441 44.9196 8.78706 44.9423C8.71122 44.9635 8.62325 44.9825 8.52315 44.9992C8.42456 45.0144 8.32825 45.028 8.23421 45.0401C8.14169 45.0508 8.06662 45.0599 8.00898 45.0674C7.86944 45.0856 7.739 45.1152 7.61766 45.1562C7.49784 45.1956 7.40077 45.2555 7.32645 45.3359C7.25365 45.4148 7.21725 45.5225 7.21725 45.659C7.21725 45.8455 7.28626 45.9866 7.42428 46.0821C7.56382 46.1762 7.74052 46.2232 7.95438 46.2232Z" fill="#FF3767"/>
<path d="M11.6714 46.6236V43.1291H12.1901V43.6569H12.2265C12.2902 43.484 12.4055 43.3437 12.5723 43.236C12.7392 43.1283 12.9272 43.0745 13.1366 43.0745C13.176 43.0745 13.2253 43.0752 13.2844 43.0767C13.3436 43.0783 13.3883 43.0805 13.4187 43.0836V43.6296C13.4005 43.625 13.3588 43.6182 13.2935 43.6091C13.2298 43.5985 13.1623 43.5932 13.0911 43.5932C12.9212 43.5932 12.7695 43.6288 12.636 43.7001C12.5041 43.7699 12.3994 43.867 12.3221 43.9913C12.2462 44.1142 12.2083 44.2545 12.2083 44.4122V46.6236H11.6714Z" fill="#FF3767"/>
<path d="M15.7729 45.3496L15.7638 44.6852H15.873L17.4019 43.1291H18.0662L16.4372 44.7762H16.3917L15.7729 45.3496ZM15.2724 46.6236V41.9642H15.8093V46.6236H15.2724ZM17.4929 46.6236L16.1278 44.8945L16.51 44.5214L18.1754 46.6236H17.4929Z" fill="#FF3767"/>
<path d="M21.2958 46.6964C20.9591 46.6964 20.6686 46.6221 20.4244 46.4734C20.1817 46.3233 19.9944 46.114 19.8625 45.8455C19.732 45.5755 19.6668 45.2616 19.6668 44.9036C19.6668 44.5457 19.732 44.2302 19.8625 43.9572C19.9944 43.6827 20.178 43.4688 20.413 43.3156C20.6497 43.1609 20.9257 43.0836 21.2412 43.0836C21.4232 43.0836 21.6029 43.1139 21.7804 43.1746C21.9578 43.2352 22.1194 43.3338 22.265 43.4703C22.4106 43.6053 22.5266 43.7843 22.6131 44.0072C22.6995 44.2302 22.7427 44.5047 22.7427 44.8308V45.0583H20.049V44.5942H22.1967C22.1967 44.397 22.1573 44.2211 22.0784 44.0664C22.0011 43.9117 21.8903 43.7896 21.7462 43.7001C21.6037 43.6106 21.4353 43.5659 21.2412 43.5659C21.0273 43.5659 20.8423 43.619 20.6861 43.7251C20.5314 43.8298 20.4123 43.9663 20.3289 44.1347C20.2454 44.303 20.2037 44.4835 20.2037 44.6761V44.9855C20.2037 45.2494 20.2492 45.4732 20.3402 45.6567C20.4328 45.8387 20.5609 45.9775 20.7247 46.073C20.8885 46.1671 21.0789 46.2141 21.2958 46.2141C21.4368 46.2141 21.5642 46.1944 21.678 46.1549C21.7933 46.114 21.8926 46.0533 21.976 45.9729C22.0595 45.891 22.1239 45.7894 22.1694 45.6681L22.6881 45.8137C22.6335 45.9896 22.5418 46.1443 22.4129 46.2778C22.2839 46.4097 22.1247 46.5129 21.9351 46.5872C21.7455 46.66 21.5324 46.6964 21.2958 46.6964Z" fill="#FF3767"/>
<path d="M26.2965 43.1291V43.5841H24.4856V43.1291H26.2965ZM25.0134 42.2918H25.5503V45.6226C25.5503 45.7742 25.5723 45.888 25.6163 45.9638C25.6618 46.0381 25.7194 46.0882 25.7892 46.114C25.8605 46.1383 25.9355 46.1504 26.0144 46.1504C26.0736 46.1504 26.1221 46.1474 26.16 46.1413C26.1979 46.1337 26.2283 46.1276 26.251 46.1231L26.3602 46.6054C26.3238 46.6191 26.273 46.6327 26.2078 46.6464C26.1426 46.6615 26.0599 46.6691 25.9598 46.6691C25.8081 46.6691 25.6595 46.6365 25.5139 46.5713C25.3698 46.5061 25.25 46.4067 25.1544 46.2732C25.0604 46.1398 25.0134 45.9714 25.0134 45.7682V42.2918Z" fill="#FF3767"/>
<path d="M28.3214 46.6236V43.1291H28.8584V46.6236H28.3214ZM28.5945 42.5466C28.4898 42.5466 28.3996 42.511 28.3237 42.4397C28.2494 42.3684 28.2122 42.2827 28.2122 42.1826C28.2122 42.0825 28.2494 41.9968 28.3237 41.9255C28.3996 41.8543 28.4898 41.8186 28.5945 41.8186C28.6991 41.8186 28.7886 41.8543 28.8629 41.9255C28.9388 41.9968 28.9767 42.0825 28.9767 42.1826C28.9767 42.2827 28.9388 42.3684 28.8629 42.4397C28.7886 42.511 28.6991 42.5466 28.5945 42.5466Z" fill="#FF3767"/>
<path d="M31.596 44.5214V46.6236H31.059V43.1291H31.5778V43.6751H31.6233C31.7052 43.4976 31.8295 43.3551 31.9964 43.2474C32.1632 43.1382 32.3786 43.0836 32.6425 43.0836C32.8791 43.0836 33.0861 43.1321 33.2636 43.2292C33.4411 43.3247 33.5791 43.4703 33.6777 43.666C33.7763 43.8601 33.8256 44.1058 33.8256 44.4031V46.6236H33.2886V44.4395C33.2886 44.165 33.2173 43.9511 33.0748 43.7979C32.9322 43.6432 32.7365 43.5659 32.4878 43.5659C32.3164 43.5659 32.1632 43.603 32.0282 43.6774C31.8948 43.7517 31.7893 43.8601 31.712 44.0027C31.6346 44.1453 31.596 44.3182 31.596 44.5214Z" fill="#FF3767"/>
<path d="M37.4345 48.0069C37.1751 48.0069 36.9522 47.9735 36.7656 47.9068C36.5791 47.8415 36.4236 47.7551 36.2992 47.6474C36.1764 47.5412 36.0785 47.4275 36.0057 47.3061L36.4335 47.0058C36.482 47.0695 36.5434 47.1423 36.6177 47.2242C36.6921 47.3076 36.7937 47.3797 36.9226 47.4404C37.053 47.5025 37.2237 47.5336 37.4345 47.5336C37.7166 47.5336 37.9494 47.4654 38.133 47.3289C38.3165 47.1924 38.4082 46.9785 38.4082 46.6873V45.9775H38.3627C38.3233 46.0412 38.2672 46.12 38.1944 46.2141C38.1231 46.3066 38.02 46.3893 37.885 46.4621C37.7515 46.5334 37.571 46.569 37.3435 46.569C37.0614 46.569 36.8081 46.5023 36.5836 46.3688C36.3607 46.2353 36.184 46.0412 36.0535 45.7864C35.9246 45.5316 35.8601 45.2221 35.8601 44.8581C35.8601 44.5002 35.9231 44.1885 36.049 43.9231C36.1749 43.6561 36.35 43.4499 36.5745 43.3042C36.799 43.1571 37.0584 43.0836 37.3526 43.0836C37.5801 43.0836 37.7606 43.1215 37.8941 43.1973C38.0291 43.2716 38.1322 43.3566 38.2035 43.4521C38.2763 43.5462 38.3324 43.6235 38.3718 43.6842H38.4264V43.1291H38.9452V46.7237C38.9452 47.024 38.8769 47.2682 38.7404 47.4563C38.6054 47.6459 38.4234 47.7847 38.1944 47.8726C37.9669 47.9621 37.7136 48.0069 37.4345 48.0069ZM37.4163 46.0867C37.6317 46.0867 37.8137 46.0374 37.9623 45.9388C38.111 45.8402 38.224 45.6984 38.3013 45.5134C38.3787 45.3283 38.4173 45.1069 38.4173 44.849C38.4173 44.5973 38.3794 44.3751 38.3036 44.1824C38.2277 43.9898 38.1155 43.8389 37.9669 43.7297C37.8182 43.6205 37.6347 43.5659 37.4163 43.5659C37.1888 43.5659 36.9992 43.6235 36.8475 43.7388C36.6974 43.8541 36.5844 44.0088 36.5085 44.2029C36.4342 44.397 36.3971 44.6124 36.3971 44.849C36.3971 45.0917 36.435 45.3063 36.5108 45.4929C36.5882 45.6779 36.7019 45.8235 36.8521 45.9297C37.0038 46.0344 37.1918 46.0867 37.4163 46.0867Z" fill="#FF3767"/>
<path d="M45.6842 43.1291V43.5841H43.8732V43.1291H45.6842ZM44.401 42.2918H44.9379V45.6226C44.9379 45.7742 44.9599 45.888 45.0039 45.9638C45.0494 46.0381 45.1071 46.0882 45.1768 46.114C45.2481 46.1383 45.3232 46.1504 45.4021 46.1504C45.4612 46.1504 45.5097 46.1474 45.5477 46.1413C45.5856 46.1337 45.6159 46.1276 45.6387 46.1231L45.7479 46.6054C45.7115 46.6191 45.6607 46.6327 45.5954 46.6464C45.5302 46.6615 45.4476 46.6691 45.3475 46.6691C45.1958 46.6691 45.0471 46.6365 44.9015 46.5713C44.7575 46.5061 44.6376 46.4067 44.5421 46.2732C44.448 46.1398 44.401 45.9714 44.401 45.7682V42.2918Z" fill="#FF3767"/>
<path d="M48.3211 44.5214V46.6236H47.7842V41.9642H48.3211V43.6751H48.3666C48.4485 43.4946 48.5714 43.3513 48.7352 43.2451C48.9005 43.1374 49.1204 43.0836 49.3949 43.0836C49.6331 43.0836 49.8416 43.1313 50.0206 43.2269C50.1996 43.3209 50.3383 43.4658 50.4369 43.6614C50.537 43.8556 50.5871 44.1028 50.5871 44.4031V46.6236H50.0502V44.4395C50.0502 44.162 49.9781 43.9473 49.834 43.7957C49.6915 43.6425 49.4935 43.5659 49.2402 43.5659C49.0643 43.5659 48.9065 43.603 48.767 43.6774C48.629 43.7517 48.5198 43.8601 48.4394 44.0027C48.3605 44.1453 48.3211 44.3182 48.3211 44.5214Z" fill="#FF3767"/>
<path d="M55.9353 42.9744H56.4086C56.4086 43.2049 56.3782 43.3983 56.3176 43.5545C56.2569 43.7092 56.1507 43.826 55.999 43.9049C55.8474 43.9822 55.635 44.0209 55.362 44.0209V43.6478C55.5501 43.6478 55.6836 43.625 55.7624 43.5795C55.8428 43.5325 55.8914 43.4597 55.908 43.3611C55.9262 43.261 55.9353 43.1321 55.9353 42.9744ZM54.9889 45.1948V43.1291H55.5258V46.6236H54.9889V46.0321H54.9525C54.8706 46.2095 54.7432 46.3605 54.5703 46.4848C54.3974 46.6077 54.179 46.6691 53.9151 46.6691C53.6966 46.6691 53.5025 46.6213 53.3326 46.5258C53.1628 46.4287 53.0293 46.2831 52.9322 46.089C52.8352 45.8933 52.7866 45.6468 52.7866 45.3496V43.1291H53.3235V45.3132C53.3235 45.568 53.3948 45.7712 53.5374 45.9229C53.6815 46.0745 53.865 46.1504 54.088 46.1504C54.2214 46.1504 54.3572 46.1163 54.4952 46.048C54.6347 45.9798 54.7515 45.8751 54.8456 45.734C54.9411 45.593 54.9889 45.4133 54.9889 45.1948Z" fill="#FF3767"/>
<path d="M60.8286 42.8652H61.3291C61.3291 43.211 61.2533 43.4855 61.1016 43.6887C60.9514 43.892 60.6875 43.9936 60.3099 43.9936V43.6114C60.4615 43.6114 60.5738 43.5803 60.6466 43.5181C60.7209 43.4559 60.7694 43.3687 60.7922 43.2565C60.8164 43.1442 60.8286 43.0138 60.8286 42.8652ZM59.4089 46.6964C59.0934 46.6964 58.8166 46.6213 58.5785 46.4712C58.3419 46.321 58.1569 46.1109 58.0234 45.841C57.8914 45.571 57.8255 45.2555 57.8255 44.8945C57.8255 44.5305 57.8914 44.2128 58.0234 43.9413C58.1569 43.6698 58.3419 43.459 58.5785 43.3088C58.8166 43.1586 59.0934 43.0836 59.4089 43.0836C59.7244 43.0836 60.0005 43.1586 60.2371 43.3088C60.4752 43.459 60.6602 43.6698 60.7922 43.9413C60.9257 44.2128 60.9924 44.5305 60.9924 44.8945C60.9924 45.2555 60.9257 45.571 60.7922 45.841C60.6602 46.1109 60.4752 46.321 60.2371 46.4712C60.0005 46.6213 59.7244 46.6964 59.4089 46.6964ZM59.4089 46.2141C59.6486 46.2141 59.8457 46.1527 60.0004 46.0298C60.1552 45.9069 60.2697 45.7454 60.344 45.5452C60.4183 45.345 60.4555 45.1281 60.4555 44.8945C60.4555 44.661 60.4183 44.4433 60.344 44.2416C60.2697 44.0399 60.1552 43.8768 60.0004 43.7524C59.8457 43.6281 59.6486 43.5659 59.4089 43.5659C59.1693 43.5659 58.9721 43.6281 58.8174 43.7524C58.6627 43.8768 58.5482 44.0399 58.4739 44.2416C58.3995 44.4433 58.3624 44.661 58.3624 44.8945C58.3624 45.1281 58.3995 45.345 58.4739 45.5452C58.5482 45.7454 58.6627 45.9069 58.8174 46.0298C58.9721 46.1527 59.1693 46.2141 59.4089 46.2141Z" fill="#FF3767"/>
<path d="M63.5724 44.5214V46.6236H63.0355V43.1291H63.5542V43.6751H63.5997C63.6816 43.4976 63.806 43.3551 63.9728 43.2474C64.1397 43.1382 64.3551 43.0836 64.619 43.0836C64.8556 43.0836 65.0626 43.1321 65.2401 43.2292C65.4175 43.3247 65.5555 43.4703 65.6541 43.666C65.7527 43.8601 65.802 44.1058 65.802 44.4031V46.6236H65.2651V44.4395C65.2651 44.165 65.1938 43.9511 65.0512 43.7979C64.9087 43.6432 64.713 43.5659 64.4643 43.5659C64.2929 43.5659 64.1397 43.603 64.0047 43.6774C63.8712 43.7517 63.7658 43.8601 63.6885 44.0027C63.6111 44.1453 63.5724 44.3182 63.5724 44.5214Z" fill="#FF3767"/>
<path d="M69.411 48.0069C69.1516 48.0069 68.9286 47.9735 68.7421 47.9068C68.5555 47.8415 68.4001 47.7551 68.2757 47.6474C68.1528 47.5412 68.055 47.4275 67.9822 47.3061L68.4099 47.0058C68.4585 47.0695 68.5199 47.1423 68.5942 47.2242C68.6685 47.3076 68.7702 47.3797 68.8991 47.4404C69.0295 47.5025 69.2001 47.5336 69.411 47.5336C69.6931 47.5336 69.9259 47.4654 70.1094 47.3289C70.2929 47.1924 70.3847 46.9785 70.3847 46.6873V45.9775H70.3392C70.2998 46.0412 70.2437 46.12 70.1708 46.2141C70.0996 46.3066 69.9964 46.3893 69.8614 46.4621C69.728 46.5334 69.5475 46.569 69.32 46.569C69.0379 46.569 68.7846 46.5023 68.5601 46.3688C68.3371 46.2353 68.1604 46.0412 68.03 45.7864C67.9011 45.5316 67.8366 45.2221 67.8366 44.8581C67.8366 44.5002 67.8996 44.1885 68.0254 43.9231C68.1513 43.6561 68.3265 43.4499 68.551 43.3042C68.7755 43.1571 69.0348 43.0836 69.3291 43.0836C69.5566 43.0836 69.7371 43.1215 69.8705 43.1973C70.0055 43.2716 70.1087 43.3566 70.1799 43.4521C70.2528 43.5462 70.3089 43.6235 70.3483 43.6842H70.4029V43.1291H70.9216V46.7237C70.9216 47.024 70.8534 47.2682 70.7169 47.4563C70.5819 47.6459 70.3999 47.7847 70.1708 47.8726C69.9433 47.9621 69.69 48.0069 69.411 48.0069ZM69.3928 46.0867C69.6081 46.0867 69.7901 46.0374 69.9388 45.9388C70.0874 45.8402 70.2004 45.6984 70.2778 45.5134C70.3551 45.3283 70.3938 45.1069 70.3938 44.849C70.3938 44.5973 70.3559 44.3751 70.2801 44.1824C70.2042 43.9898 70.092 43.8389 69.9433 43.7297C69.7947 43.6205 69.6112 43.5659 69.3928 43.5659C69.1653 43.5659 68.9757 43.6235 68.824 43.7388C68.6738 43.8541 68.5608 44.0088 68.485 44.2029C68.4107 44.397 68.3735 44.6124 68.3735 44.849C68.3735 45.0917 68.4114 45.3063 68.4873 45.4929C68.5646 45.6779 68.6784 45.8235 68.8285 45.9297C68.9802 46.0344 69.1683 46.0867 69.3928 46.0867Z" fill="#FF3767"/>
<path d="M76.6778 44.5214V46.6236H76.1409V41.9642H76.6778V43.6751H76.7233C76.8052 43.4946 76.928 43.3513 77.0919 43.2451C77.2572 43.1374 77.4771 43.0836 77.7516 43.0836C77.9898 43.0836 78.1983 43.1313 78.3773 43.2269C78.5563 43.3209 78.695 43.4658 78.7936 43.6614C78.8937 43.8556 78.9438 44.1028 78.9438 44.4031V46.6236H78.4069V44.4395C78.4069 44.162 78.3348 43.9473 78.1907 43.7957C78.0482 43.6425 77.8502 43.5659 77.5969 43.5659C77.421 43.5659 77.2633 43.603 77.1237 43.6774C76.9857 43.7517 76.8765 43.8601 76.7961 44.0027C76.7172 44.1453 76.6778 44.3182 76.6778 44.5214Z" fill="#FF3767"/>
<path d="M81.1433 46.6236V43.1291H81.6802V46.6236H81.1433ZM81.4163 42.5466C81.3117 42.5466 81.2214 42.511 81.1456 42.4397C81.0713 42.3684 81.0341 42.2827 81.0341 42.1826C81.0341 42.0825 81.0713 41.9968 81.1456 41.9255C81.2214 41.8543 81.3117 41.8186 81.4163 41.8186C81.521 41.8186 81.6105 41.8543 81.6848 41.9255C81.7606 41.9968 81.7985 42.0825 81.7985 42.1826C81.7985 42.2827 81.7606 42.3684 81.6848 42.4397C81.6105 42.511 81.521 42.5466 81.4163 42.5466Z" fill="#FF3767"/>
<path d="M85.3461 46.6964C85.0094 46.6964 84.7189 46.6221 84.4747 46.4734C84.232 46.3233 84.0447 46.114 83.9128 45.8455C83.7823 45.5755 83.7171 45.2616 83.7171 44.9036C83.7171 44.5457 83.7823 44.2302 83.9128 43.9572C84.0447 43.6827 84.2282 43.4688 84.4633 43.3156C84.6999 43.1609 84.976 43.0836 85.2915 43.0836C85.4735 43.0836 85.6532 43.1139 85.8307 43.1746C86.0081 43.2352 86.1697 43.3338 86.3153 43.4703C86.4609 43.6053 86.5769 43.7843 86.6633 44.0072C86.7498 44.2302 86.793 44.5047 86.793 44.8308V45.0583H84.0993V44.5942H86.247C86.247 44.397 86.2076 44.2211 86.1287 44.0664C86.0513 43.9117 85.9406 43.7896 85.7965 43.7001C85.654 43.6106 85.4856 43.5659 85.2915 43.5659C85.0776 43.5659 84.8926 43.619 84.7363 43.7251C84.5816 43.8298 84.4626 43.9663 84.3792 44.1347C84.2957 44.303 84.254 44.4835 84.254 44.6761V44.9855C84.254 45.2494 84.2995 45.4732 84.3905 45.6567C84.483 45.8387 84.6112 45.9775 84.775 46.073C84.9388 46.1671 85.1292 46.2141 85.3461 46.2141C85.4871 46.2141 85.6145 46.1944 85.7283 46.1549C85.8436 46.114 85.9429 46.0533 86.0263 45.9729C86.1097 45.891 86.1742 45.7894 86.2197 45.6681L86.7384 45.8137C86.6838 45.9896 86.5921 46.1443 86.4631 46.2778C86.3342 46.4097 86.175 46.5129 85.9854 46.5872C85.7958 46.66 85.5827 46.6964 85.3461 46.6964ZM85.7374 42.7104L85.2642 42.0734L84.7909 42.7104H84.2813V42.674L85.0184 41.7276H85.5099L86.247 42.674V42.7104H85.7374ZM85.2642 47.7793C85.1595 47.7793 85.0693 47.7437 84.9934 47.6724C84.9191 47.6011 84.882 47.5154 84.882 47.4153C84.882 47.3152 84.9191 47.2295 84.9934 47.1582C85.0693 47.087 85.1595 47.0513 85.2642 47.0513C85.3688 47.0513 85.4583 47.087 85.5326 47.1582C85.6085 47.2295 85.6464 47.3152 85.6464 47.4153C85.6464 47.5154 85.6085 47.6011 85.5326 47.6724C85.4583 47.7437 85.3688 47.7793 85.2642 47.7793Z" fill="#FF3767"/>
<path d="M91.0293 45.1948V43.1291H91.5663V46.6236H91.0293V46.0321H90.9929C90.911 46.2095 90.7836 46.3605 90.6107 46.4848C90.4378 46.6077 90.2194 46.6691 89.9555 46.6691C89.7371 46.6691 89.5429 46.6213 89.3731 46.5258C89.2032 46.4287 89.0697 46.2831 88.9727 46.089C88.8756 45.8933 88.8271 45.6468 88.8271 45.3496V43.1291H89.364V45.3132C89.364 45.568 89.4353 45.7712 89.5778 45.9229C89.7219 46.0745 89.9054 46.1504 90.1284 46.1504C90.2619 46.1504 90.3976 46.1163 90.5357 46.048C90.6752 45.9798 90.792 45.8751 90.886 45.734C90.9816 45.593 91.0293 45.4133 91.0293 45.1948Z" fill="#FF3767"/>
<path d="M98.2057 46.6964C97.8781 46.6964 97.596 46.6191 97.3594 46.4643C97.1228 46.3096 96.9408 46.0965 96.8134 45.825C96.686 45.5536 96.6223 45.2434 96.6223 44.8945C96.6223 44.5396 96.6875 44.2264 96.8179 43.9549C96.9499 43.6819 97.1334 43.4688 97.3685 43.3156C97.6051 43.1609 97.8811 43.0836 98.1966 43.0836C98.4423 43.0836 98.6638 43.1291 98.861 43.2201C99.0581 43.3111 99.2197 43.4385 99.3456 43.6023C99.4714 43.7661 99.5496 43.9572 99.5799 44.1756H99.043C99.002 44.0163 98.911 43.8753 98.77 43.7524C98.6304 43.6281 98.4423 43.5659 98.2057 43.5659C97.9964 43.5659 97.8129 43.6205 97.6552 43.7297C97.4989 43.8374 97.3768 43.9898 97.2889 44.187C97.2024 44.3826 97.1592 44.6124 97.1592 44.8763C97.1592 45.1463 97.2017 45.3814 97.2866 45.5816C97.373 45.7818 97.4944 45.9373 97.6506 46.048C97.8083 46.1587 97.9934 46.2141 98.2057 46.2141C98.3453 46.2141 98.4719 46.1898 98.5857 46.1413C98.6994 46.0927 98.7957 46.023 98.8746 45.932C98.9535 45.841 99.0096 45.7318 99.043 45.6044H99.5799C99.5496 45.8106 99.4745 45.9964 99.3547 46.1618C99.2363 46.3256 99.0794 46.456 98.8837 46.5531C98.6896 46.6486 98.4636 46.6964 98.2057 46.6964Z" fill="#FF3767"/>
<path d="M103.784 45.1948V43.1291H104.321V46.6236H103.784V46.0321H103.748C103.666 46.2095 103.539 46.3605 103.366 46.4848C103.193 46.6077 102.974 46.6691 102.71 46.6691C102.492 46.6691 102.298 46.6213 102.128 46.5258C101.958 46.4287 101.825 46.2831 101.728 46.089C101.631 45.8933 101.582 45.6468 101.582 45.3496V43.1291H102.119V45.3132C102.119 45.568 102.19 45.7712 102.333 45.9229C102.477 46.0745 102.66 46.1504 102.883 46.1504C103.017 46.1504 103.153 46.1163 103.291 46.048C103.43 45.9798 103.547 45.8751 103.641 45.734C103.737 45.593 103.784 45.4133 103.784 45.1948ZM102.729 42.6558L102.019 41.6002H102.647L103.202 42.6558H102.729Z" fill="#FF3767"/>
<path d="M107.059 44.5214V46.6236H106.522V43.1291H107.041V43.6751H107.086C107.168 43.4976 107.292 43.3551 107.459 43.2474C107.626 43.1382 107.841 43.0836 108.105 43.0836C108.342 43.0836 108.549 43.1321 108.726 43.2292C108.904 43.3247 109.042 43.4703 109.141 43.666C109.239 43.8601 109.288 44.1058 109.288 44.4031V46.6236H108.752V44.4395C108.752 44.165 108.68 43.9511 108.538 43.7979C108.395 43.6432 108.199 43.5659 107.951 43.5659C107.779 43.5659 107.626 43.603 107.491 43.6774C107.358 43.7517 107.252 43.8601 107.175 44.0027C107.098 44.1453 107.059 44.3182 107.059 44.5214Z" fill="#FF3767"/>
<path d="M112.897 48.0069C112.638 48.0069 112.415 47.9735 112.229 47.9068C112.042 47.8415 111.886 47.7551 111.762 47.6474C111.639 47.5412 111.541 47.4275 111.469 47.3061L111.896 47.0058C111.945 47.0695 112.006 47.1423 112.081 47.2242C112.155 47.3076 112.257 47.3797 112.386 47.4404C112.516 47.5025 112.687 47.5336 112.897 47.5336C113.18 47.5336 113.412 47.4654 113.596 47.3289C113.779 47.1924 113.871 46.9785 113.871 46.6873V45.9775H113.826C113.786 46.0412 113.73 46.12 113.657 46.2141C113.586 46.3066 113.483 46.3893 113.348 46.4621C113.214 46.5334 113.034 46.569 112.806 46.569C112.524 46.569 112.271 46.5023 112.047 46.3688C111.824 46.2353 111.647 46.0412 111.516 45.7864C111.387 45.5316 111.323 45.2221 111.323 44.8581C111.323 44.5002 111.386 44.1885 111.512 43.9231C111.638 43.6561 111.813 43.4499 112.037 43.3042C112.262 43.1571 112.521 43.0836 112.815 43.0836C113.043 43.0836 113.223 43.1215 113.357 43.1973C113.492 43.2716 113.595 43.3566 113.666 43.4521C113.739 43.5462 113.795 43.6235 113.835 43.6842H113.889V43.1291H114.408V46.7237C114.408 47.024 114.34 47.2682 114.203 47.4563C114.068 47.6459 113.886 47.7847 113.657 47.8726C113.43 47.9621 113.176 48.0069 112.897 48.0069ZM112.879 46.0867C113.095 46.0867 113.277 46.0374 113.425 45.9388C113.574 45.8402 113.687 45.6984 113.764 45.5134C113.842 45.3283 113.88 45.1069 113.88 44.849C113.88 44.5973 113.842 44.3751 113.766 44.1824C113.691 43.9898 113.578 43.8389 113.43 43.7297C113.281 43.6205 113.098 43.5659 112.879 43.5659C112.652 43.5659 112.462 43.6235 112.31 43.7388C112.16 43.8541 112.047 44.0088 111.971 44.2029C111.897 44.397 111.86 44.6124 111.86 44.849C111.86 45.0917 111.898 45.3063 111.974 45.4929C112.051 45.6779 112.165 45.8235 112.315 45.9297C112.467 46.0344 112.655 46.0867 112.879 46.0867Z" fill="#FF3767"/>
<path d="M119.7 46.6236V41.9642H120.237V43.6842H120.283C120.322 43.6235 120.377 43.5462 120.446 43.4521C120.518 43.3566 120.619 43.2716 120.751 43.1973C120.885 43.1215 121.065 43.0836 121.293 43.0836C121.587 43.0836 121.846 43.1571 122.071 43.3042C122.295 43.4514 122.47 43.6599 122.596 43.9299C122.722 44.1999 122.785 44.5184 122.785 44.8854C122.785 45.2555 122.722 45.5763 122.596 45.8478C122.47 46.1178 122.296 46.3271 122.073 46.4757C121.85 46.6228 121.593 46.6964 121.302 46.6964C121.077 46.6964 120.898 46.6592 120.763 46.5849C120.628 46.5091 120.524 46.4234 120.451 46.3278C120.378 46.2308 120.322 46.1504 120.283 46.0867H120.219V46.6236H119.7ZM120.228 44.8763C120.228 45.1402 120.267 45.3731 120.344 45.5748C120.421 45.775 120.534 45.932 120.683 46.0457C120.832 46.158 121.014 46.2141 121.229 46.2141C121.453 46.2141 121.641 46.1549 121.791 46.0366C121.943 45.9168 122.056 45.756 122.132 45.5543C122.21 45.3511 122.248 45.1251 122.248 44.8763C122.248 44.6306 122.21 44.4092 122.134 44.212C122.06 44.0133 121.947 43.8563 121.795 43.7411C121.645 43.6243 121.456 43.5659 121.229 43.5659C121.011 43.5659 120.827 43.6212 120.678 43.732C120.53 43.8412 120.418 43.9944 120.342 44.1915C120.266 44.3872 120.228 44.6155 120.228 44.8763Z" fill="#FF3767"/>
<path d="M125.852 46.7055C125.631 46.7055 125.43 46.6638 125.249 46.5804C125.069 46.4954 124.925 46.3733 124.819 46.2141C124.713 46.0533 124.66 45.8592 124.66 45.6317C124.66 45.4315 124.699 45.2692 124.778 45.1448C124.857 45.0189 124.962 44.9203 125.094 44.849C125.226 44.7777 125.372 44.7247 125.531 44.6898C125.692 44.6534 125.854 44.6246 126.016 44.6033C126.228 44.576 126.4 44.5555 126.532 44.5419C126.666 44.5267 126.763 44.5017 126.824 44.4668C126.886 44.4319 126.917 44.3713 126.917 44.2848V44.2666C126.917 44.0421 126.855 43.8677 126.732 43.7433C126.611 43.619 126.427 43.5568 126.18 43.5568C125.923 43.5568 125.722 43.6129 125.577 43.7251C125.431 43.8374 125.329 43.9572 125.27 44.0846L124.76 43.9026C124.851 43.6903 124.972 43.5249 125.124 43.4066C125.277 43.2868 125.444 43.2034 125.625 43.1564C125.807 43.1078 125.986 43.0836 126.161 43.0836C126.274 43.0836 126.403 43.0972 126.548 43.1245C126.695 43.1503 126.837 43.2041 126.974 43.286C127.112 43.3679 127.226 43.4916 127.317 43.6569C127.408 43.8222 127.454 44.0436 127.454 44.3212V46.6236H126.917V46.1504H126.889C126.853 46.2262 126.792 46.3074 126.707 46.3938C126.623 46.4803 126.51 46.5538 126.368 46.6145C126.227 46.6752 126.055 46.7055 125.852 46.7055ZM125.934 46.2232C126.146 46.2232 126.325 46.1815 126.471 46.0981C126.618 46.0146 126.729 45.9069 126.803 45.775C126.879 45.643 126.917 45.5043 126.917 45.3587V44.8672C126.894 44.8945 126.844 44.9196 126.767 44.9423C126.691 44.9635 126.603 44.9825 126.503 44.9992C126.404 45.0144 126.308 45.028 126.214 45.0401C126.121 45.0508 126.046 45.0599 125.989 45.0674C125.849 45.0856 125.719 45.1152 125.597 45.1562C125.477 45.1956 125.38 45.2555 125.306 45.3359C125.233 45.4148 125.197 45.5225 125.197 45.659C125.197 45.8455 125.266 45.9866 125.404 46.0821C125.543 46.1762 125.72 46.2232 125.934 46.2232ZM126.171 47.7793C126.066 47.7793 125.976 47.7437 125.9 47.6724C125.825 47.6011 125.788 47.5154 125.788 47.4153C125.788 47.3152 125.825 47.2295 125.9 47.1582C125.976 47.087 126.066 47.0513 126.171 47.0513C126.275 47.0513 126.365 47.087 126.439 47.1582C126.515 47.2295 126.553 47.3152 126.553 47.4153C126.553 47.5154 126.515 47.6011 126.439 47.6724C126.365 47.7437 126.275 47.7793 126.171 47.7793Z" fill="#FF3767"/>
<path d="M130.188 44.5214V46.6236H129.651V43.1291H130.17V43.6751H130.215C130.297 43.4976 130.421 43.3551 130.588 43.2474C130.755 43.1382 130.971 43.0836 131.234 43.0836C131.471 43.0836 131.678 43.1321 131.856 43.2292C132.033 43.3247 132.171 43.4703 132.27 43.666C132.368 43.8601 132.417 44.1058 132.417 44.4031V46.6236H131.881V44.4395C131.881 44.165 131.809 43.9511 131.667 43.7979C131.524 43.6432 131.328 43.5659 131.08 43.5659C130.908 43.5659 130.755 43.603 130.62 43.6774C130.487 43.7517 130.381 43.8601 130.304 44.0027C130.227 44.1453 130.188 44.3182 130.188 44.5214Z" fill="#FF3767"/>
<path d="M138.136 45.3496L138.126 44.6852H138.236L139.764 43.1291H140.429L138.8 44.7762H138.754L138.136 45.3496ZM137.635 46.6236V41.9642H138.172V46.6236H137.635ZM139.856 46.6236L138.49 44.8945L138.873 44.5214L140.538 46.6236H139.856Z" fill="#FF3767"/>
<path d="M142.874 44.5214V46.6236H142.337V41.9642H142.874V43.6751H142.92C143.001 43.4946 143.124 43.3513 143.288 43.2451C143.453 43.1374 143.673 43.0836 143.948 43.0836C144.186 43.0836 144.395 43.1313 144.574 43.2269C144.753 43.3209 144.891 43.4658 144.99 43.6614C145.09 43.8556 145.14 44.1028 145.14 44.4031V46.6236H144.603V44.4395C144.603 44.162 144.531 43.9473 144.387 43.7957C144.244 43.6425 144.046 43.5659 143.793 43.5659C143.617 43.5659 143.46 43.603 143.32 43.6774C143.182 43.7517 143.073 43.8601 142.992 44.0027C142.913 44.1453 142.874 44.3182 142.874 44.5214Z" fill="#FF3767"/>
<path d="M150.179 42.8652H150.679C150.679 43.211 150.604 43.4855 150.452 43.6887C150.302 43.892 150.038 43.9936 149.66 43.9936V43.6114C149.812 43.6114 149.924 43.5803 149.997 43.5181C150.071 43.4559 150.12 43.3687 150.143 43.2565C150.167 43.1442 150.179 43.0138 150.179 42.8652ZM148.759 46.6964C148.444 46.6964 148.167 46.6213 147.929 46.4712C147.692 46.321 147.507 46.1109 147.374 45.841C147.242 45.571 147.176 45.2555 147.176 44.8945C147.176 44.5305 147.242 44.2128 147.374 43.9413C147.507 43.6698 147.692 43.459 147.929 43.3088C148.167 43.1586 148.444 43.0836 148.759 43.0836C149.075 43.0836 149.351 43.1586 149.587 43.3088C149.826 43.459 150.011 43.6698 150.143 43.9413C150.276 44.2128 150.343 44.5305 150.343 44.8945C150.343 45.2555 150.276 45.571 150.143 45.841C150.011 46.1109 149.826 46.321 149.587 46.4712C149.351 46.6213 149.075 46.6964 148.759 46.6964ZM148.759 46.2141C148.999 46.2141 149.196 46.1527 149.351 46.0298C149.505 45.9069 149.62 45.7454 149.694 45.5452C149.769 45.345 149.806 45.1281 149.806 44.8945C149.806 44.661 149.769 44.4433 149.694 44.2416C149.62 44.0399 149.505 43.8768 149.351 43.7524C149.196 43.6281 148.999 43.5659 148.759 43.5659C148.52 43.5659 148.322 43.6281 148.168 43.7524C148.013 43.8768 147.899 44.0399 147.824 44.2416C147.75 44.4433 147.713 44.661 147.713 44.8945C147.713 45.1281 147.75 45.345 147.824 45.5452C147.899 45.7454 148.013 45.9069 148.168 46.0298C148.322 46.1527 148.52 46.2141 148.759 46.2141ZM148.996 42.6558H148.55V42.1644C148.709 42.1553 148.821 42.1333 148.887 42.0984C148.953 42.0636 148.987 42.0097 148.987 41.9369C148.987 41.855 148.939 41.7951 148.843 41.7572C148.748 41.7193 148.632 41.7003 148.495 41.7003L148.514 41.3545C148.828 41.3545 149.065 41.4091 149.226 41.5183C149.388 41.6275 149.469 41.7731 149.469 41.9551C149.469 42.1098 149.42 42.2228 149.321 42.2941C149.223 42.3654 149.114 42.4101 148.996 42.4283V42.6558Z" fill="#FF3767"/>
<path d="M152.386 46.6236V43.1291H152.923V46.6236H152.386ZM152.659 42.5466C152.554 42.5466 152.464 42.511 152.388 42.4397C152.314 42.3684 152.277 42.2827 152.277 42.1826C152.277 42.0825 152.314 41.9968 152.388 41.9255C152.464 41.8543 152.554 41.8186 152.659 41.8186C152.763 41.8186 152.853 41.8543 152.927 41.9255C153.003 41.9968 153.041 42.0825 153.041 42.1826C153.041 42.2827 153.003 42.3684 152.927 42.4397C152.853 42.511 152.763 42.5466 152.659 42.5466Z" fill="#FF3767"/>
<path d="M158.679 44.5214V46.6236H158.143V43.1291H158.661V43.6751H158.707C158.789 43.4976 158.913 43.3551 159.08 43.2474C159.247 43.1382 159.462 43.0836 159.726 43.0836C159.963 43.0836 160.17 43.1321 160.347 43.2292C160.525 43.3247 160.663 43.4703 160.761 43.666C160.86 43.8601 160.909 44.1058 160.909 44.4031V46.6236H160.372V44.4395C160.372 44.165 160.301 43.9511 160.158 43.7979C160.016 43.6432 159.82 43.5659 159.571 43.5659C159.4 43.5659 159.247 43.603 159.112 43.6774C158.978 43.7517 158.873 43.8601 158.796 44.0027C158.718 44.1453 158.679 44.3182 158.679 44.5214Z" fill="#FF3767"/>
<path d="M164.518 48.0069C164.259 48.0069 164.036 47.9735 163.849 47.9068C163.663 47.8415 163.507 47.7551 163.383 47.6474C163.26 47.5412 163.162 47.4275 163.089 47.3061L163.517 47.0058C163.566 47.0695 163.627 47.1423 163.701 47.2242C163.776 47.3076 163.877 47.3797 164.006 47.4404C164.137 47.5025 164.307 47.5336 164.518 47.5336C164.8 47.5336 165.033 47.4654 165.216 47.3289C165.4 47.1924 165.492 46.9785 165.492 46.6873V45.9775H165.446C165.407 46.0412 165.351 46.12 165.278 46.2141C165.207 46.3066 165.103 46.3893 164.969 46.4621C164.835 46.5334 164.655 46.569 164.427 46.569C164.145 46.569 163.892 46.5023 163.667 46.3688C163.444 46.2353 163.268 46.0412 163.137 45.7864C163.008 45.5316 162.944 45.2221 162.944 44.8581C162.944 44.5002 163.007 44.1885 163.132 43.9231C163.258 43.6561 163.434 43.4499 163.658 43.3042C163.883 43.1571 164.142 43.0836 164.436 43.0836C164.664 43.0836 164.844 43.1215 164.978 43.1973C165.113 43.2716 165.216 43.3566 165.287 43.4521C165.36 43.5462 165.416 43.6235 165.455 43.6842H165.51V43.1291H166.029V46.7237C166.029 47.024 165.96 47.2682 165.824 47.4563C165.689 47.6459 165.507 47.7847 165.278 47.8726C165.05 47.9621 164.797 48.0069 164.518 48.0069ZM164.5 46.0867C164.715 46.0867 164.897 46.0374 165.046 45.9388C165.195 45.8402 165.307 45.6984 165.385 45.5134C165.462 45.3283 165.501 45.1069 165.501 44.849C165.501 44.5973 165.463 44.3751 165.387 44.1824C165.311 43.9898 165.199 43.8389 165.05 43.7297C164.902 43.6205 164.718 43.5659 164.5 43.5659C164.272 43.5659 164.083 43.6235 163.931 43.7388C163.781 43.8541 163.668 44.0088 163.592 44.2029C163.518 44.397 163.481 44.6124 163.481 44.849C163.481 45.0917 163.519 45.3063 163.594 45.4929C163.672 45.6779 163.785 45.8235 163.936 45.9297C164.087 46.0344 164.275 46.0867 164.5 46.0867Z" fill="#FF3767"/>
<path d="M168.766 44.5214V46.6236H168.229V41.9642H168.766V43.6751H168.811C168.893 43.4946 169.016 43.3513 169.18 43.2451C169.345 43.1374 169.565 43.0836 169.84 43.0836C170.078 43.0836 170.286 43.1313 170.465 43.2269C170.644 43.3209 170.783 43.4658 170.882 43.6614C170.982 43.8556 171.032 44.1028 171.032 44.4031V46.6236H170.495V44.4395C170.495 44.162 170.423 43.9473 170.279 43.7957C170.136 43.6425 169.938 43.5659 169.685 43.5659C169.509 43.5659 169.351 43.603 169.212 43.6774C169.074 43.7517 168.964 43.8601 168.884 44.0027C168.805 44.1453 168.766 44.3182 168.766 44.5214Z" fill="#FF3767"/>
<path d="M173.231 46.6236V43.1291H173.768V46.6236H173.231ZM173.504 42.5466C173.4 42.5466 173.309 42.511 173.234 42.4397C173.159 42.3684 173.122 42.2827 173.122 42.1826C173.122 42.0825 173.159 41.9968 173.234 41.9255C173.309 41.8543 173.4 41.8186 173.504 41.8186C173.609 41.8186 173.698 41.8543 173.773 41.9255C173.849 41.9968 173.886 42.0825 173.886 42.1826C173.886 42.2827 173.849 42.3684 173.773 42.4397C173.698 42.511 173.609 42.5466 173.504 42.5466Z" fill="#FF3767"/>
<path d="M177.434 46.6964C177.097 46.6964 176.807 46.6221 176.563 46.4734C176.32 46.3233 176.133 46.114 176.001 45.8455C175.87 45.5755 175.805 45.2616 175.805 44.9036C175.805 44.5457 175.87 44.2302 176.001 43.9572C176.133 43.6827 176.316 43.4688 176.551 43.3156C176.788 43.1609 177.064 43.0836 177.379 43.0836C177.561 43.0836 177.741 43.1139 177.919 43.1746C178.096 43.2352 178.258 43.3338 178.403 43.4703C178.549 43.6053 178.665 43.7843 178.751 44.0072C178.838 44.2302 178.881 44.5047 178.881 44.8308V45.0583H176.187V44.5942H178.335C178.335 44.397 178.296 44.2211 178.217 44.0664C178.139 43.9117 178.029 43.7896 177.884 43.7001C177.742 43.6106 177.574 43.5659 177.379 43.5659C177.166 43.5659 176.981 43.619 176.824 43.7251C176.67 43.8298 176.551 43.9663 176.467 44.1347C176.384 44.303 176.342 44.4835 176.342 44.6761V44.9855C176.342 45.2494 176.387 45.4732 176.478 45.6567C176.571 45.8387 176.699 45.9775 176.863 46.073C177.027 46.1671 177.217 46.2141 177.434 46.2141C177.575 46.2141 177.702 46.1944 177.816 46.1549C177.932 46.114 178.031 46.0533 178.114 45.9729C178.198 45.891 178.262 45.7894 178.308 45.6681L178.826 45.8137C178.772 45.9896 178.68 46.1443 178.551 46.2778C178.422 46.4097 178.263 46.5129 178.073 46.5872C177.884 46.66 177.671 46.6964 177.434 46.6964ZM177.825 42.7104L177.352 42.0734L176.879 42.7104H176.369V42.674L177.106 41.7276H177.598L178.335 42.674V42.7104H177.825ZM177.352 47.7793C177.247 47.7793 177.157 47.7437 177.081 47.6724C177.007 47.6011 176.97 47.5154 176.97 47.4153C176.97 47.3152 177.007 47.2295 177.081 47.1582C177.157 47.087 177.247 47.0513 177.352 47.0513C177.457 47.0513 177.546 47.087 177.621 47.1582C177.696 47.2295 177.734 47.3152 177.734 47.4153C177.734 47.5154 177.696 47.6011 177.621 47.6724C177.546 47.7437 177.457 47.7793 177.352 47.7793Z" fill="#FF3767"/>
<path d="M180.915 47.9341V43.1291H181.434V43.6842H181.497C181.537 43.6235 181.591 43.5462 181.661 43.4521C181.732 43.3566 181.834 43.2716 181.966 43.1973C182.1 43.1215 182.28 43.0836 182.508 43.0836C182.802 43.0836 183.061 43.1571 183.286 43.3042C183.51 43.4514 183.685 43.6599 183.811 43.9299C183.937 44.1999 184 44.5184 184 44.8854C184 45.2555 183.937 45.5763 183.811 45.8478C183.685 46.1178 183.511 46.3271 183.288 46.4757C183.065 46.6228 182.808 46.6964 182.517 46.6964C182.292 46.6964 182.112 46.6592 181.977 46.5849C181.842 46.5091 181.739 46.4234 181.666 46.3278C181.593 46.2308 181.537 46.1504 181.497 46.0867H181.452V47.9341H180.915ZM181.443 44.8763C181.443 45.1402 181.481 45.3731 181.559 45.5748C181.636 45.775 181.749 45.932 181.898 46.0457C182.046 46.158 182.228 46.2141 182.444 46.2141C182.668 46.2141 182.856 46.1549 183.006 46.0366C183.157 45.9168 183.271 45.756 183.347 45.5543C183.424 45.3511 183.463 45.1251 183.463 44.8763C183.463 44.6306 183.425 44.4092 183.349 44.212C183.275 44.0133 183.162 43.8563 183.01 43.7411C182.86 43.6243 182.671 43.5659 182.444 43.5659C182.225 43.5659 182.042 43.6212 181.893 43.732C181.745 43.8412 181.632 43.9944 181.557 44.1915C181.481 44.3872 181.443 44.6155 181.443 44.8763Z" fill="#FF3767"/>
<path d="M39.7231 32.9729C38.9942 32.9729 38.3336 32.7679 37.7413 32.3579C37.1491 31.9706 36.6821 31.4581 36.3404 30.8203C35.9987 30.1597 35.8279 29.4535 35.8279 28.7018C35.8279 27.2895 36.1354 25.9114 36.7504 24.5674C37.3883 23.2234 38.2197 21.9478 39.2448 20.7405C40.2698 19.5332 41.386 18.4284 42.5933 17.4261C43.8234 16.401 45.0421 15.524 46.2494 14.7951C47.4795 14.0662 48.5956 13.4967 49.5979 13.0867C50.623 12.6766 51.4203 12.4716 51.9897 12.4716C52.6503 12.4716 53.1856 12.6197 53.5957 12.9158C54.0285 13.1892 54.2449 13.622 54.2449 14.2142C54.2449 14.3965 54.1993 14.5445 54.1082 14.6584C54.4043 14.7268 54.6435 14.8976 54.8258 15.171C55.008 15.4443 55.0991 15.8543 55.0991 16.401C55.0991 16.6288 55.0422 17.2211 54.9283 18.1778C54.8144 19.1345 54.6891 20.2963 54.5524 21.663C54.4385 23.0298 54.3816 24.4535 54.3816 25.9341C54.3816 26.1619 54.4157 26.367 54.4841 26.5492C54.5524 26.7086 54.7005 26.7884 54.9283 26.7884C55.8394 26.7884 56.762 26.6061 57.6959 26.2417C58.6527 25.8544 59.5752 25.3874 60.4636 24.8407C61.3748 24.2713 62.1948 23.7132 62.9238 23.1665C63.6755 22.597 64.3019 22.13 64.8031 21.7655C65.327 21.3783 65.6687 21.1847 65.8281 21.1847C66.6026 21.1847 66.9899 21.5719 66.9899 22.3464C66.9899 22.5514 66.7393 22.9842 66.2381 23.6448C65.7598 24.2826 65.0992 25.023 64.2564 25.8658C63.4135 26.6859 62.4682 27.5059 61.4203 28.326C60.3953 29.1232 59.3246 29.7838 58.2085 30.3078C57.1151 30.8317 56.0558 31.0936 55.0308 31.0936C53.7779 31.0936 52.8212 30.7975 52.1606 30.2052C51.5228 29.613 51.0672 28.8157 50.7938 27.8134C50.5433 26.7884 50.4066 25.638 50.3838 24.3624C49.2221 26.0253 48.0148 27.5059 46.7619 28.8043C45.5318 30.08 44.3131 31.0936 43.1058 31.8454C41.8985 32.5971 40.771 32.9729 39.7231 32.9729ZM51.8189 15.8543C49.5865 16.925 47.582 18.155 45.8052 19.5446C44.0284 20.9113 42.6161 22.3464 41.5682 23.8498C40.5432 25.3533 40.0306 26.7998 40.0306 28.1893C40.0306 28.5765 40.2129 28.7702 40.5773 28.7702C41.0102 28.7702 41.5796 28.5196 42.2858 28.0184C43.0147 27.5173 43.8006 26.8567 44.6434 26.0366C45.4863 25.1938 46.3291 24.2599 47.1719 23.2348C48.0148 22.187 48.8006 21.1163 49.5296 20.0229C50.2585 18.9295 50.8394 17.8817 51.2722 16.8794C51.4316 16.5149 51.6139 16.1732 51.8189 15.8543Z" fill="#FF3767"/>
<path d="M61.8771 33.1779C61.3076 33.1779 60.8178 32.9729 60.4078 32.5629C60.0206 32.1529 59.8269 31.5606 59.8269 30.7861C59.8269 30.4444 59.8725 29.8863 59.9636 29.1118C60.0775 28.3146 60.2142 27.4034 60.3736 26.3783C60.5559 25.3533 60.7267 24.2826 60.8862 23.1665C61.0684 22.0503 61.2165 20.9911 61.3304 19.9888C61.4671 18.9865 61.5582 18.1323 61.6037 17.4261C61.6493 16.5605 61.8771 15.9455 62.2871 15.581C62.6971 15.1937 63.1869 15.0001 63.7564 15.0001C64.2119 15.0001 64.622 15.114 64.9864 15.3418C65.3737 15.5468 65.6129 15.991 65.704 16.6744C65.8179 17.335 65.8293 18.2917 65.7382 19.5446C66.7404 17.7222 67.7541 16.0935 68.7792 14.6584C69.827 13.2233 70.9204 12.0844 72.0594 11.2415C73.9501 9.80645 75.6585 9.08891 77.1847 9.08891C78.0503 9.08891 78.6198 9.28253 78.8932 9.66978C79.1665 10.057 79.3032 10.4557 79.3032 10.8657C79.3032 11.139 79.2348 11.3896 79.0982 11.6174C78.9843 11.8452 78.7337 12.0844 78.3465 12.3349C77.9592 12.5855 77.3669 12.9158 76.5697 13.3258C75.4991 13.8725 74.4398 14.5901 73.392 15.4785C72.3669 16.3669 71.3418 17.5058 70.3168 18.8954C69.2917 20.2849 68.2553 21.9933 67.2074 24.0207C66.1596 26.048 65.0776 28.4626 63.9614 31.2645C63.7564 32.039 63.4602 32.5515 63.073 32.8021C62.7085 33.0527 62.3099 33.1779 61.8771 33.1779Z" fill="#FF3767"/>
<path d="M94.2739 34.1688C92.7249 34.1688 91.2899 33.8385 89.9687 33.1779C88.6475 32.5401 87.4402 31.6973 86.3468 30.6494C85.2534 29.5788 84.2739 28.4171 83.4082 27.1642C82.5654 25.8886 81.8479 24.6357 81.2556 23.4057C80.9823 24.6585 80.7317 25.7291 80.5039 26.6175C80.2989 27.5059 80.128 28.2462 79.9914 28.8385C79.8775 29.2941 79.7522 29.7383 79.6155 30.1711C79.5016 30.6039 79.3194 30.957 79.0688 31.2303C78.8182 31.5037 78.4652 31.6403 78.0096 31.6403C77.0301 31.6403 76.4036 31.31 76.1303 30.6494C75.8569 29.9661 75.7203 29.1005 75.7203 28.0526C75.7203 27.1187 75.8683 25.8886 76.1645 24.3624C76.4834 22.8362 76.9048 21.1277 77.4287 19.2371C77.9526 17.3464 78.5563 15.3988 79.2396 13.3942C79.9458 11.3668 80.6975 9.39643 81.4948 7.48298C82.2921 5.54674 83.0893 3.79274 83.8866 2.22097C84.3878 1.26425 84.8319 0.660598 85.2192 0.410027C85.6064 0.136676 86.062 0 86.5859 0C87.1099 0 87.5085 0.136676 87.7819 0.410027C88.0552 0.683377 88.1919 1.04784 88.1919 1.50343C88.1919 1.79956 88.1235 2.09569 87.9869 2.39182C87.8502 2.68795 87.7021 3.05242 87.5427 3.48522C87.0188 4.64696 86.4721 6.00232 85.9026 7.55131C85.3331 9.07752 84.7864 10.6607 84.2625 12.3008C83.7385 13.9181 83.2716 15.4557 82.8615 16.9136C83.9777 16.253 85.2192 15.6152 86.5859 15.0001C87.9527 14.3623 89.3308 13.7928 90.7204 13.2917C92.1327 12.7678 93.4539 12.3577 94.684 12.0616C95.914 11.7655 96.9505 11.6174 97.7933 11.6174C98.4539 11.6174 98.9551 11.811 99.2968 12.1983C99.6384 12.5855 99.8093 13.0069 99.8093 13.4625C99.8093 13.8042 99.7068 14.1459 99.5018 14.4876C99.2968 14.8293 98.8639 15.1254 98.2033 15.376C96.0165 16.1049 93.8411 16.8452 91.6771 17.5969C89.5359 18.3487 87.1554 19.2371 84.5358 20.2621C85.0825 21.3327 85.7203 22.4375 86.4493 23.5765C87.1782 24.6927 87.9641 25.7405 88.8069 26.72C89.6497 27.6768 90.5154 28.4626 91.4038 29.0777C92.2921 29.6699 93.1691 29.9661 94.0348 29.9661C95.3104 29.9661 96.5405 29.7155 97.725 29.2144C98.9095 28.6904 100.003 28.064 101.005 27.3351C102.007 26.5834 102.884 25.8544 103.636 25.1483C104.411 24.4421 105.014 23.8954 105.447 23.5082C105.698 23.2576 105.937 23.0754 106.165 22.9615C106.415 22.8476 106.723 22.7906 107.087 22.7906C107.52 22.7906 107.85 22.9273 108.078 23.2006C108.329 23.4512 108.443 23.7815 108.42 24.1915C108.397 24.5788 108.203 24.966 107.839 25.3533C107.543 25.6722 107.076 26.1847 106.438 26.8909C105.823 27.5742 105.071 28.3374 104.183 29.1802C103.317 30.0002 102.349 30.7975 101.279 31.572C100.231 32.3237 99.1145 32.9388 97.93 33.4171C96.7455 33.9183 95.5268 34.1688 94.2739 34.1688Z" fill="#FF3767"/>
<path d="M122.072 32.9046C121.138 32.9046 120.432 32.7565 119.954 32.4604C119.498 32.187 119.191 31.8681 119.031 31.5037C118.895 31.1392 118.826 30.8545 118.826 30.6494C118.826 29.9888 119.123 29.4421 119.715 29.0093C120.33 28.5538 121.013 28.326 121.765 28.326C122.494 28.326 123.394 28.2235 124.464 28.0184C125.558 27.7907 126.708 27.4717 127.915 27.0617C129.145 26.6517 130.318 26.1392 131.435 25.5241C132.574 24.9091 133.565 24.2029 134.407 23.4057C135.25 22.6084 135.831 21.7314 136.15 20.7747C135.649 20.6835 135.148 20.6152 134.647 20.5696C134.145 20.5013 133.644 20.4671 133.143 20.4671C131.457 20.4671 129.715 20.6494 127.915 21.0138C126.116 21.3783 124.328 21.7314 122.551 22.0731C122.118 22.1642 121.731 22.0845 121.389 21.8339C121.343 22.3122 121.298 22.7564 121.252 23.1665C121.23 23.5537 121.207 23.9751 121.184 24.4307C121.138 25.5469 121.036 26.4125 120.877 27.0275C120.74 27.6198 120.58 28.0412 120.398 28.2918C120.216 28.5424 120.022 28.6904 119.817 28.736C119.612 28.7815 119.419 28.8043 119.236 28.8043C119.168 28.8043 119.123 28.8043 119.1 28.8043C118.69 28.8043 118.302 28.7018 117.938 28.4968C117.574 28.2918 117.277 27.8704 117.05 27.2326C116.822 26.572 116.708 25.5811 116.708 24.2599C116.708 20.0685 117.163 16.5149 118.075 13.5992C119.009 10.6607 120.341 8.42831 122.072 6.9021C123.826 5.35312 125.922 4.57862 128.359 4.57862C130.273 4.57862 131.765 5.10255 132.836 6.15039C133.906 7.17546 134.442 8.6561 134.442 10.5923C134.442 11.5718 134.248 12.5514 133.861 13.5309C133.473 14.5104 132.927 15.4785 132.221 16.4352C132.653 16.3441 133.075 16.2758 133.485 16.2302C133.895 16.1619 134.282 16.1277 134.647 16.1277C136.788 16.1277 138.371 16.5149 139.396 17.2894C140.421 18.0411 140.934 19.0548 140.934 20.3305C140.934 21.6061 140.569 22.802 139.84 23.9182C139.134 25.0344 138.189 26.0594 137.004 26.9934C135.842 27.9045 134.555 28.736 133.143 29.4877C131.731 30.2166 130.318 30.8431 128.906 31.367C127.494 31.8681 126.184 32.244 124.977 32.4946C123.769 32.7679 122.801 32.9046 122.072 32.9046ZM121.799 18.3145C121.936 18.2462 122.084 18.2006 122.243 18.1778C124.293 17.8361 125.865 17.3692 126.959 16.7769C128.052 16.1846 128.804 15.4443 129.214 14.5559C129.624 13.6675 129.829 12.6083 129.829 11.3782C129.829 11.0593 129.783 10.7176 129.692 10.3532C129.601 9.98869 129.419 9.68117 129.145 9.4306C128.895 9.15725 128.508 9.02057 127.984 9.02057C126.252 9.02057 124.897 9.80645 123.918 11.3782C122.961 12.9272 122.255 15.2393 121.799 18.3145Z" fill="#FF3767"/>
<path d="M149.068 32.8021C147.451 32.8021 146.152 32.2326 145.173 31.0936C144.193 29.9319 143.703 28.3829 143.703 26.4467C143.703 25.8316 143.783 25.2052 143.943 24.5674C144.125 23.9296 144.341 23.3373 144.592 22.7906C144.455 22.5856 144.341 22.3236 144.25 22.0047C144.182 21.663 144.148 21.2644 144.148 20.8088C144.148 19.3282 144.41 17.9728 144.933 16.7427C145.457 15.4899 146.164 14.4079 147.052 13.4967C147.94 12.5855 148.92 11.8794 149.99 11.3782C151.061 10.8771 152.143 10.6265 153.237 10.6265C155.104 10.6265 156.631 11.2529 157.815 12.5058C159.022 13.7586 159.626 15.7063 159.626 18.3487C159.626 19.6699 159.421 21.0138 159.011 22.3806C158.601 23.7473 158.043 25.0571 157.337 26.31C156.653 27.5401 155.856 28.6449 154.945 29.6244C154.057 30.6039 153.1 31.3784 152.075 31.9479C151.073 32.5173 150.07 32.8021 149.068 32.8021ZM148.521 21.253C148.635 21.5036 148.692 21.7997 148.692 22.1414C148.692 22.4831 148.624 22.8362 148.487 23.2006C148.35 23.5651 148.214 24.0549 148.077 24.6699C147.94 25.2622 147.872 26.1164 147.872 27.2326C147.872 27.5287 147.906 27.7793 147.975 27.9843C148.066 28.1665 148.259 28.2576 148.555 28.2576C149.33 28.2576 150.059 28.0071 150.742 27.5059C151.448 27.0048 152.075 26.3442 152.621 25.5241C153.191 24.7041 153.669 23.7929 154.057 22.7906C154.467 21.7655 154.774 20.7291 154.979 19.6812C155.207 18.6106 155.321 17.6197 155.321 16.7086C155.321 16.1163 155.207 15.7063 154.979 15.4785C154.751 15.2507 154.353 15.1368 153.783 15.1368C153.009 15.1368 152.211 15.3874 151.391 15.8885C150.594 16.3669 149.922 17.0275 149.375 17.8703C148.829 18.6903 148.555 19.6243 148.555 20.6721C148.555 20.8772 148.544 21.0708 148.521 21.253Z" fill="#FF3767"/>
<path d="M161.734 30.9911C161.188 30.9911 160.789 30.8089 160.539 30.4444C160.288 30.0572 160.185 29.5788 160.231 29.0093C160.254 28.6904 160.504 28.2348 160.983 27.6426C161.461 27.0275 162.088 26.31 162.862 25.49C163.636 24.6471 164.491 23.7473 165.425 22.7906C166.381 21.8111 167.361 20.8202 168.363 19.8179C167.11 17.9728 166.165 16.4922 165.527 15.376C164.912 14.2598 164.582 13.3828 164.536 12.745C164.491 12.0388 164.605 11.4693 164.878 11.0365C165.174 10.6037 165.641 10.3873 166.279 10.3873C166.643 10.3873 167.019 10.5582 167.406 10.8999C167.816 11.2415 168.329 11.868 168.944 12.7791C169.582 13.6903 170.425 14.9773 171.473 16.6402C173.044 15.0685 174.331 13.7928 175.334 12.8133C176.359 11.811 177.179 11.0365 177.794 10.4898C178.432 9.94313 178.921 9.56727 179.263 9.36226C179.627 9.15725 179.935 9.05474 180.186 9.05474C180.732 9.05474 181.12 9.24836 181.347 9.63561C181.598 10.0001 181.7 10.4784 181.655 11.0707C181.609 11.5491 181.325 12.1299 180.801 12.8133C180.299 13.4739 179.65 14.2028 178.853 15.0001C178.056 15.7746 177.19 16.5833 176.256 17.4261C175.345 18.2462 174.457 19.0548 173.591 19.8521C175.003 21.8567 176.325 23.6107 177.555 25.1141C178.807 26.5947 179.821 27.8248 180.596 28.8043C181.37 29.7611 181.769 30.4672 181.792 30.9228C181.837 31.4012 181.712 31.777 181.416 32.0504C181.142 32.3237 180.744 32.4604 180.22 32.4604C179.924 32.4604 179.559 32.3579 179.126 32.1529C178.694 31.9479 178.113 31.5264 177.384 30.8886C176.678 30.2508 175.766 29.2941 174.65 28.0184C173.557 26.72 172.19 24.9774 170.55 22.7906C169.616 23.7473 168.682 24.7041 167.748 25.6608C166.837 26.6175 165.971 27.5059 165.151 28.326C164.354 29.1232 163.648 29.7724 163.033 30.2736C162.441 30.7519 162.008 30.9911 161.734 30.9911Z" fill="#FF3767"/>
<path d="M28.8786 33.2505C28.1768 33.2505 27.6443 33.0327 27.2812 32.597C26.9424 32.1614 26.773 31.5684 26.773 30.8181C26.773 30.2131 26.7972 29.6927 26.8456 29.257C26.894 28.8214 26.9908 28.3615 27.136 27.8775C27.2812 27.3692 27.4628 26.752 27.6806 26.026C27.9226 25.2757 28.2252 24.3196 28.5882 23.1579C28.806 22.4802 29.0723 21.5968 29.3869 20.5077C29.7257 19.3944 30.0646 18.1842 30.4034 16.8772C30.7423 15.5461 31.0206 14.2149 31.2384 12.8838C31.4804 11.5284 31.6015 10.282 31.6015 9.14441C31.6015 8.36992 31.432 7.65593 31.0932 7.00246C28.8423 9.22912 26.7125 12.1335 24.7036 15.7155C22.719 19.2975 20.9522 23.4604 19.4032 28.2042C18.9433 29.3902 18.4109 30.1889 17.8058 30.6003C17.2007 30.9876 16.6199 31.1812 16.0632 31.1812C15.8938 31.1812 15.6396 31.0844 15.3008 30.8907C14.962 30.6729 14.6473 30.2857 14.3569 29.729C14.0664 29.1723 13.9212 28.3857 13.9212 27.3692C13.9212 27.1272 13.9817 26.8246 14.1027 26.4616C14.2238 26.0744 14.4053 25.6629 14.6473 25.2273C14.8651 23.9687 15.0225 22.6254 15.1193 21.1975C15.2403 19.7453 15.3129 18.3052 15.3371 16.8772C15.3855 15.4251 15.4097 14.0697 15.4097 12.8112C15.4097 11.843 15.3371 10.9959 15.1919 10.2699C14.0059 11.7704 12.8805 13.5857 11.8156 15.7155C10.7506 17.8454 9.78253 20.1083 8.91122 22.5044C8.06412 24.9005 7.36224 27.2482 6.80557 29.5475C6.66035 30.1041 6.49093 30.6245 6.29731 31.1086C6.10368 31.5684 5.81325 31.9436 5.426 32.234C5.06296 32.5002 4.53049 32.6334 3.82861 32.6334C3.05411 32.6334 2.47324 32.3187 2.086 31.6894C1.69875 31.0602 1.50513 30.2252 1.50513 29.1844C1.50513 28.3857 1.67455 27.3571 2.01339 26.0986C2.35223 24.8158 2.81208 23.4241 3.39296 21.9236C3.97383 20.3988 4.63941 18.8498 5.3897 17.2766C6.16419 15.6792 6.97499 14.1423 7.82209 12.6659C8.66919 11.1896 9.5284 9.8705 10.3997 8.70876C11.2952 7.52282 12.1423 6.59101 12.941 5.91333C13.7639 5.21144 14.5142 4.8605 15.1919 4.8605C15.2161 4.8605 15.2524 4.8605 15.3008 4.8605C15.8333 4.8605 16.3173 4.9089 16.753 5.00571C17.2128 5.07832 17.6122 5.33245 17.951 5.76811C18.3141 6.17956 18.6287 6.86934 18.8949 7.83746C19.1612 8.80557 19.3911 10.173 19.5847 11.9399C19.6331 12.3755 19.6694 12.8959 19.6936 13.5009C19.7178 14.0818 19.7299 14.6869 19.7299 15.3162C20.5286 13.5251 21.3999 11.843 22.3438 10.2699C23.312 8.69666 24.3043 7.30499 25.3208 6.09485C26.3615 4.8847 27.3902 3.94079 28.4067 3.2631C29.4232 2.58542 30.3671 2.24658 31.2384 2.24658C32.2549 2.24658 33.1989 2.50071 34.0702 3.00897C34.9415 3.49303 35.6434 4.31593 36.1758 5.47767C36.7083 6.63941 36.9745 8.22471 36.9745 10.2335C36.9745 12.3634 36.7809 14.4328 36.3936 16.4416C36.0064 18.4262 35.5223 20.302 34.9415 22.0688C34.3606 23.8356 33.7797 25.4572 33.1989 26.9336C32.618 28.3857 32.1339 29.6443 31.7467 30.7092C31.432 31.4595 31.069 32.0767 30.6576 32.5607C30.2461 33.0206 29.6531 33.2505 28.8786 33.2505Z" fill="#FF3767"/>
</svg>
