<svg width="123" height="32" viewBox="0 0 123 32" fill="none" xmlns="http://www.w3.org/2000/svg">
<path d="M0 27.9723H0.448889L1.50439 30.5504H1.54078L2.59628 27.9723H3.04517V31.0782H2.69334V28.7185H2.66301L1.69243 31.0782H1.35273L0.382163 28.7185H0.351832V31.0782H0V27.9723Z" fill="#FF3767"/>
<path d="M5.24759 31.1328C5.09998 31.1328 4.96603 31.105 4.84571 31.0494C4.7254 30.9927 4.62986 30.9114 4.55909 30.8052C4.48832 30.698 4.45294 30.5686 4.45294 30.417C4.45294 30.2835 4.47922 30.1753 4.5318 30.0924C4.58437 30.0085 4.65463 29.9428 4.74259 29.8953C4.83055 29.8478 4.92761 29.8124 5.03376 29.7891C5.14093 29.7649 5.2486 29.7457 5.35678 29.7315C5.49832 29.7133 5.61307 29.6997 5.70103 29.6906C5.79 29.6804 5.8547 29.6638 5.89515 29.6405C5.9366 29.6173 5.95732 29.5768 5.95732 29.5192V29.5071C5.95732 29.3574 5.91638 29.2412 5.83448 29.1583C5.7536 29.0754 5.63077 29.0339 5.46597 29.0339C5.29511 29.0339 5.16115 29.0713 5.06409 29.1461C4.96704 29.2209 4.89879 29.3008 4.85936 29.3857L4.51966 29.2644C4.58032 29.1229 4.6612 29.0127 4.76231 28.9338C4.86442 28.8539 4.97563 28.7983 5.09594 28.767C5.21726 28.7346 5.33656 28.7185 5.45384 28.7185C5.52865 28.7185 5.61459 28.7276 5.71165 28.7458C5.80971 28.763 5.90424 28.7988 5.99524 28.8534C6.08724 28.908 6.16357 28.9904 6.22423 29.1006C6.28489 29.2108 6.31522 29.3584 6.31522 29.5435V31.0782H5.95732V30.7627H5.93912C5.91486 30.8133 5.87442 30.8674 5.8178 30.925C5.76119 30.9826 5.68587 31.0317 5.59184 31.0721C5.49782 31.1125 5.38307 31.1328 5.24759 31.1328ZM5.30219 30.8113C5.44373 30.8113 5.56303 30.7835 5.66009 30.7279C5.75815 30.6723 5.83196 30.6005 5.8815 30.5125C5.93205 30.4246 5.95732 30.332 5.95732 30.235V29.9074C5.94216 29.9256 5.90879 29.9423 5.85723 29.9575C5.80668 29.9716 5.74804 29.9843 5.68132 29.9954C5.6156 30.0055 5.5514 30.0146 5.48872 30.0227C5.42705 30.0298 5.377 30.0358 5.33858 30.0409C5.24557 30.053 5.15862 30.0727 5.07774 30.1C4.99787 30.1263 4.93317 30.1662 4.88363 30.2198C4.8351 30.2724 4.81083 30.3442 4.81083 30.4352C4.81083 30.5595 4.85684 30.6535 4.94884 30.7172C5.04185 30.7799 5.15963 30.8113 5.30219 30.8113Z" fill="#FF3767"/>
<path d="M7.77986 31.0782V28.7488H8.12562V29.1006H8.14989C8.19235 28.9854 8.26919 28.8919 8.3804 28.8201C8.49161 28.7483 8.61698 28.7124 8.7565 28.7124C8.78278 28.7124 8.81564 28.7129 8.85507 28.7139C8.8945 28.7149 8.92432 28.7164 8.94454 28.7185V29.0824C8.93241 29.0794 8.90461 29.0749 8.86114 29.0688C8.81867 29.0617 8.77368 29.0582 8.72617 29.0582C8.61293 29.0582 8.51183 29.0819 8.42286 29.1294C8.3349 29.176 8.26514 29.2407 8.21358 29.3236C8.16303 29.4055 8.13776 29.499 8.13776 29.6041V31.0782H7.77986Z" fill="#FF3767"/>
<path d="M10.5138 30.2289L10.5078 29.7861H10.5805L11.5996 28.7488H12.0425L10.9566 29.8468H10.9263L10.5138 30.2289ZM10.1802 31.0782V27.9723H10.5381V31.0782H10.1802ZM11.6603 31.0782L10.7504 29.9256L11.0052 29.6769L12.1153 31.0782H11.6603Z" fill="#FF3767"/>
<path d="M14.1952 31.1267C13.9708 31.1267 13.7772 31.0772 13.6144 30.9781C13.4526 30.878 13.3278 30.7385 13.2398 30.5595C13.1529 30.3796 13.1094 30.1703 13.1094 29.9317C13.1094 29.6931 13.1529 29.4828 13.2398 29.3008C13.3278 29.1178 13.4501 28.9753 13.6068 28.8732C13.7645 28.77 13.9485 28.7185 14.1588 28.7185C14.2802 28.7185 14.4 28.7387 14.5182 28.7791C14.6365 28.8196 14.7442 28.8853 14.8413 28.9763C14.9383 29.0663 15.0157 29.1856 15.0733 29.3342C15.1309 29.4828 15.1597 29.6658 15.1597 29.8832V30.0348H13.3642V29.7254H14.7958C14.7958 29.594 14.7695 29.4767 14.7169 29.3736C14.6653 29.2705 14.5915 29.1891 14.4955 29.1294C14.4005 29.0698 14.2882 29.04 14.1588 29.04C14.0163 29.04 13.8929 29.0754 13.7888 29.1461C13.6857 29.2159 13.6063 29.3069 13.5507 29.4191C13.4951 29.5313 13.4673 29.6516 13.4673 29.78V29.9863C13.4673 30.1622 13.4976 30.3113 13.5583 30.4337C13.62 30.555 13.7054 30.6475 13.8146 30.7112C13.9238 30.7739 14.0507 30.8052 14.1952 30.8052C14.2893 30.8052 14.3742 30.7921 14.45 30.7658C14.5268 30.7385 14.5931 30.698 14.6487 30.6444C14.7043 30.5899 14.7472 30.5221 14.7776 30.4412L15.1233 30.5383C15.0869 30.6556 15.0258 30.7587 14.9398 30.8477C14.8539 30.9356 14.7477 31.0044 14.6214 31.0539C14.495 31.1024 14.3529 31.1267 14.1952 31.1267Z" fill="#FF3767"/>
<path d="M17.5286 28.7488V29.0521H16.3214V28.7488H17.5286ZM16.6733 28.1907H17.0312V30.4109C17.0312 30.512 17.0458 30.5878 17.0752 30.6384C17.1055 30.6879 17.1439 30.7213 17.1904 30.7385C17.2379 30.7546 17.288 30.7627 17.3405 30.7627C17.38 30.7627 17.4123 30.7607 17.4376 30.7567C17.4629 30.7516 17.4831 30.7476 17.4983 30.7445L17.5711 31.066C17.5468 31.0751 17.5129 31.0842 17.4695 31.0933C17.426 31.1034 17.3709 31.1085 17.3042 31.1085C17.2031 31.1085 17.104 31.0868 17.0069 31.0433C16.9109 30.9998 16.831 30.9336 16.7673 30.8446C16.7046 30.7557 16.6733 30.6434 16.6733 30.508V28.1907Z" fill="#FF3767"/>
<path d="M18.8784 31.0782V28.7488H19.2363V31.0782H18.8784ZM19.0603 28.3606C18.9906 28.3606 18.9304 28.3368 18.8799 28.2893C18.8303 28.2418 18.8056 28.1847 18.8056 28.1179C18.8056 28.0512 18.8303 27.9941 18.8799 27.9466C18.9304 27.899 18.9906 27.8753 19.0603 27.8753C19.1301 27.8753 19.1897 27.899 19.2393 27.9466C19.2898 27.9941 19.3151 28.0512 19.3151 28.1179C19.3151 28.1847 19.2898 28.2418 19.2393 28.2893C19.1897 28.3368 19.1301 28.3606 19.0603 28.3606Z" fill="#FF3767"/>
<path d="M21.0611 29.6769V31.0782H20.7032V28.7488H21.0489V29.1128H21.0793C21.1339 28.9945 21.2168 28.8994 21.328 28.8277C21.4392 28.7549 21.5827 28.7185 21.7587 28.7185C21.9164 28.7185 22.0544 28.7508 22.1727 28.8155C22.291 28.8792 22.383 28.9763 22.4487 29.1067C22.5144 29.2361 22.5473 29.3999 22.5473 29.5981V31.0782H22.1894V29.6223C22.1894 29.4393 22.1418 29.2968 22.0468 29.1947C21.9518 29.0915 21.8213 29.04 21.6555 29.04C21.5413 29.04 21.4392 29.0647 21.3492 29.1143C21.2602 29.1638 21.19 29.2361 21.1384 29.3311C21.0868 29.4262 21.0611 29.5414 21.0611 29.6769Z" fill="#FF3767"/>
<path d="M24.9529 32.0002C24.78 32.0002 24.6314 31.978 24.507 31.9335C24.3827 31.89 24.2791 31.8324 24.1961 31.7606C24.1143 31.6898 24.049 31.614 24.0005 31.5331L24.2856 31.3329C24.318 31.3754 24.3589 31.4239 24.4085 31.4785C24.458 31.5341 24.5257 31.5822 24.6117 31.6226C24.6986 31.6641 24.8124 31.6848 24.9529 31.6848C25.1409 31.6848 25.2961 31.6393 25.4185 31.5483C25.5408 31.4573 25.602 31.3148 25.602 31.1206V30.6475H25.5716C25.5453 30.6899 25.5079 30.7425 25.4594 30.8052C25.4119 30.8669 25.3431 30.922 25.2532 30.9705C25.1642 31.018 25.0439 31.0418 24.8922 31.0418C24.7042 31.0418 24.5353 30.9973 24.3857 30.9083C24.2371 30.8194 24.1193 30.6899 24.0324 30.5201C23.9464 30.3502 23.9035 30.144 23.9035 29.9014C23.9035 29.6628 23.9454 29.455 24.0293 29.2781C24.1132 29.1001 24.23 28.9626 24.3796 28.8656C24.5293 28.7675 24.7022 28.7185 24.8983 28.7185C25.0499 28.7185 25.1703 28.7437 25.2592 28.7943C25.3492 28.8438 25.418 28.9005 25.4655 28.9641C25.514 29.0268 25.5514 29.0784 25.5777 29.1188H25.6141V28.7488H25.9599V31.1449C25.9599 31.3451 25.9144 31.5079 25.8234 31.6332C25.7334 31.7596 25.6121 31.8521 25.4594 31.9107C25.3078 31.9704 25.1389 32.0002 24.9529 32.0002ZM24.9408 30.7203C25.0843 30.7203 25.2056 30.6874 25.3047 30.6217C25.4038 30.556 25.4791 30.4615 25.5307 30.3381C25.5822 30.2148 25.608 30.0672 25.608 29.8953C25.608 29.7275 25.5828 29.5793 25.5322 29.4509C25.4817 29.3226 25.4068 29.222 25.3078 29.1492C25.2087 29.0764 25.0863 29.04 24.9408 29.04C24.7891 29.04 24.6627 29.0784 24.5616 29.1552C24.4615 29.2321 24.3862 29.3352 24.3357 29.4646C24.2861 29.594 24.2614 29.7376 24.2614 29.8953C24.2614 30.0571 24.2866 30.2001 24.3372 30.3245C24.3887 30.4478 24.4646 30.5449 24.5647 30.6156C24.6658 30.6854 24.7911 30.7203 24.9408 30.7203Z" fill="#FF3767"/>
<path d="M30.4519 28.7488V29.0521H29.2448V28.7488H30.4519ZM29.5966 28.1907H29.9545V30.4109C29.9545 30.512 29.9692 30.5878 29.9985 30.6384C30.0288 30.6879 30.0672 30.7213 30.1137 30.7385C30.1612 30.7546 30.2113 30.7627 30.2639 30.7627C30.3033 30.7627 30.3356 30.7607 30.3609 30.7567C30.3862 30.7516 30.4064 30.7476 30.4216 30.7445L30.4944 31.066C30.4701 31.0751 30.4362 31.0842 30.3928 31.0933C30.3493 31.1034 30.2942 31.1085 30.2275 31.1085C30.1264 31.1085 30.0273 31.0868 29.9302 31.0433C29.8342 30.9998 29.7543 30.9336 29.6906 30.8446C29.6279 30.7557 29.5966 30.6434 29.5966 30.508V28.1907Z" fill="#FF3767"/>
<path d="M32.2096 29.6769V31.0782H31.8517V27.9723H32.2096V29.1128H32.2399C32.2945 28.9925 32.3764 28.8969 32.4856 28.8261C32.5958 28.7544 32.7424 28.7185 32.9254 28.7185C33.0841 28.7185 33.2232 28.7503 33.3425 28.814C33.4618 28.8767 33.5543 28.9732 33.62 29.1037C33.6867 29.2331 33.7201 29.3979 33.7201 29.5981V31.0782H33.3622V29.6223C33.3622 29.4373 33.3141 29.2942 33.2181 29.1931C33.1231 29.091 32.9911 29.04 32.8223 29.04C32.705 29.04 32.5999 29.0647 32.5069 29.1143C32.4148 29.1638 32.3421 29.2361 32.2885 29.3311C32.2359 29.4262 32.2096 29.5414 32.2096 29.6769Z" fill="#FF3767"/>
<path d="M37.2851 28.6457H37.6005C37.6005 28.7994 37.5803 28.9283 37.5399 29.0324C37.4994 29.1355 37.4286 29.2134 37.3275 29.2659C37.2264 29.3175 37.0849 29.3433 36.9029 29.3433V29.0946C37.0283 29.0946 37.1173 29.0794 37.1698 29.0491C37.2234 29.0177 37.2558 28.9692 37.2669 28.9035C37.279 28.8368 37.2851 28.7508 37.2851 28.6457ZM36.6542 30.1258V28.7488H37.0121V31.0782H36.6542V30.6839H36.6299C36.5753 30.8022 36.4904 30.9028 36.3752 30.9857C36.2599 31.0676 36.1143 31.1085 35.9384 31.1085C35.7928 31.1085 35.6634 31.0767 35.5502 31.013C35.437 30.9483 35.348 30.8512 35.2833 30.7218C35.2186 30.5914 35.1862 30.4271 35.1862 30.2289V28.7488H35.5441V30.2047C35.5441 30.3745 35.5916 30.51 35.6867 30.6111C35.7827 30.7122 35.905 30.7627 36.0537 30.7627C36.1426 30.7627 36.2331 30.74 36.3251 30.6945C36.4181 30.649 36.496 30.5792 36.5587 30.4852C36.6224 30.3912 36.6542 30.2714 36.6542 30.1258Z" fill="#FF3767"/>
<path d="M40.5468 28.5729H40.8804C40.8804 28.8034 40.8299 28.9864 40.7288 29.1219C40.6287 29.2573 40.4528 29.3251 40.201 29.3251V29.0703C40.3021 29.0703 40.3769 29.0496 40.4255 29.0081C40.475 28.9667 40.5074 28.9085 40.5225 28.8337C40.5387 28.7589 40.5468 28.672 40.5468 28.5729ZM39.6005 31.1267C39.3902 31.1267 39.2057 31.0767 39.047 30.9766C38.8892 30.8765 38.7659 30.7365 38.6769 30.5565C38.589 30.3765 38.545 30.1662 38.545 29.9256C38.545 29.683 38.589 29.4712 38.6769 29.2902C38.7659 29.1092 38.8892 28.9687 39.047 28.8686C39.2057 28.7685 39.3902 28.7185 39.6005 28.7185C39.8108 28.7185 39.9948 28.7685 40.1525 28.8686C40.3112 28.9687 40.4346 29.1092 40.5225 29.2902C40.6115 29.4712 40.656 29.683 40.656 29.9256C40.656 30.1662 40.6115 30.3765 40.5225 30.5565C40.4346 30.7365 40.3112 30.8765 40.1525 30.9766C39.9948 31.0767 39.8108 31.1267 39.6005 31.1267ZM39.6005 30.8052C39.7602 30.8052 39.8917 30.7643 39.9948 30.6824C40.0979 30.6005 40.1742 30.4928 40.2238 30.3593C40.2733 30.2259 40.2981 30.0813 40.2981 29.9256C40.2981 29.7699 40.2733 29.6248 40.2238 29.4904C40.1742 29.3559 40.0979 29.2472 39.9948 29.1643C39.8917 29.0814 39.7602 29.04 39.6005 29.04C39.4407 29.04 39.3093 29.0814 39.2062 29.1643C39.1031 29.2472 39.0267 29.3559 38.9772 29.4904C38.9277 29.6248 38.9029 29.7699 38.9029 29.9256C38.9029 30.0813 38.9277 30.2259 38.9772 30.3593C39.0267 30.4928 39.1031 30.6005 39.2062 30.6824C39.3093 30.7643 39.4407 30.8052 39.6005 30.8052Z" fill="#FF3767"/>
<path d="M42.3758 29.6769V31.0782H42.0179V28.7488H42.3636V29.1128H42.394C42.4486 28.9945 42.5315 28.8994 42.6427 28.8277C42.7539 28.7549 42.8975 28.7185 43.0734 28.7185C43.2311 28.7185 43.3691 28.7508 43.4874 28.8155C43.6057 28.8792 43.6977 28.9763 43.7634 29.1067C43.8291 29.2361 43.862 29.3999 43.862 29.5981V31.0782H43.5041V29.6223C43.5041 29.4393 43.4565 29.2968 43.3615 29.1947C43.2665 29.0915 43.1361 29.04 42.9702 29.04C42.856 29.04 42.7539 29.0647 42.6639 29.1143C42.5749 29.1638 42.5047 29.2361 42.4531 29.3311C42.4016 29.4262 42.3758 29.5414 42.3758 29.6769Z" fill="#FF3767"/>
<path d="M46.2676 32.0002C46.0947 32.0002 45.9461 31.978 45.8217 31.9335C45.6974 31.89 45.5938 31.8324 45.5109 31.7606C45.429 31.6898 45.3638 31.614 45.3152 31.5331L45.6003 31.3329C45.6327 31.3754 45.6736 31.4239 45.7232 31.4785C45.7727 31.5341 45.8404 31.5822 45.9264 31.6226C46.0133 31.6641 46.1271 31.6848 46.2676 31.6848C46.4556 31.6848 46.6108 31.6393 46.7332 31.5483C46.8555 31.4573 46.9167 31.3148 46.9167 31.1206V30.6475H46.8863C46.86 30.6899 46.8226 30.7425 46.7741 30.8052C46.7266 30.8669 46.6578 30.922 46.5679 30.9705C46.4789 31.018 46.3586 31.0418 46.2069 31.0418C46.0189 31.0418 45.85 30.9973 45.7004 30.9083C45.5518 30.8194 45.434 30.6899 45.3471 30.5201C45.2611 30.3502 45.2182 30.144 45.2182 29.9014C45.2182 29.6628 45.2601 29.455 45.344 29.2781C45.428 29.1001 45.5447 28.9626 45.6944 28.8656C45.844 28.7675 46.0169 28.7185 46.213 28.7185C46.3647 28.7185 46.485 28.7437 46.5739 28.7943C46.6639 28.8438 46.7327 28.9005 46.7802 28.9641C46.8287 29.0268 46.8661 29.0784 46.8924 29.1188H46.9288V28.7488H47.2746V31.1449C47.2746 31.3451 47.2291 31.5079 47.1381 31.6332C47.0481 31.7596 46.9268 31.8521 46.7741 31.9107C46.6225 31.9704 46.4536 32.0002 46.2676 32.0002ZM46.2555 30.7203C46.399 30.7203 46.5203 30.6874 46.6194 30.6217C46.7185 30.556 46.7938 30.4615 46.8454 30.3381C46.8969 30.2148 46.9227 30.0672 46.9227 29.8953C46.9227 29.7275 46.8975 29.5793 46.8469 29.4509C46.7964 29.3226 46.7215 29.222 46.6225 29.1492C46.5234 29.0764 46.4011 29.04 46.2555 29.04C46.1038 29.04 45.9774 29.0784 45.8763 29.1552C45.7762 29.2321 45.7009 29.3352 45.6504 29.4646C45.6008 29.594 45.5761 29.7376 45.5761 29.8953C45.5761 30.0571 45.6013 30.2001 45.6519 30.3245C45.7034 30.4478 45.7793 30.5449 45.8794 30.6156C45.9805 30.6854 46.1058 30.7203 46.2555 30.7203Z" fill="#FF3767"/>
<path d="M51.1115 29.6769V31.0782H50.7536V27.9723H51.1115V29.1128H51.1418C51.1964 28.9925 51.2783 28.8969 51.3875 28.8261C51.4977 28.7544 51.6443 28.7185 51.8273 28.7185C51.986 28.7185 52.125 28.7503 52.2443 28.814C52.3636 28.8767 52.4561 28.9732 52.5218 29.1037C52.5886 29.2331 52.6219 29.3979 52.6219 29.5981V31.0782H52.264V29.6223C52.264 29.4373 52.216 29.2942 52.12 29.1931C52.0249 29.091 51.893 29.04 51.7241 29.04C51.6069 29.04 51.5017 29.0647 51.4087 29.1143C51.3167 29.1638 51.2439 29.2361 51.1903 29.3311C51.1378 29.4262 51.1115 29.5414 51.1115 29.6769Z" fill="#FF3767"/>
<path d="M54.0881 31.0782V28.7488H54.446V31.0782H54.0881ZM54.2701 28.3606C54.2003 28.3606 54.1401 28.3368 54.0896 28.2893C54.0401 28.2418 54.0153 28.1847 54.0153 28.1179C54.0153 28.0512 54.0401 27.9941 54.0896 27.9466C54.1401 27.899 54.2003 27.8753 54.2701 27.8753C54.3398 27.8753 54.3995 27.899 54.449 27.9466C54.4996 27.9941 54.5248 28.0512 54.5248 28.1179C54.5248 28.1847 54.4996 28.2418 54.449 28.2893C54.3995 28.3368 54.3398 28.3606 54.2701 28.3606Z" fill="#FF3767"/>
<path d="M56.8895 31.1267C56.6651 31.1267 56.4715 31.0772 56.3087 30.9781C56.1469 30.878 56.0221 30.7385 55.9341 30.5595C55.8472 30.3796 55.8037 30.1703 55.8037 29.9317C55.8037 29.6931 55.8472 29.4828 55.9341 29.3008C56.0221 29.1178 56.1444 28.9753 56.3011 28.8732C56.4588 28.77 56.6428 28.7185 56.8531 28.7185C56.9745 28.7185 57.0943 28.7387 57.2125 28.7791C57.3308 28.8196 57.4385 28.8853 57.5356 28.9763C57.6326 29.0663 57.71 29.1856 57.7676 29.3342C57.8252 29.4828 57.854 29.6658 57.854 29.8832V30.0348H56.0585V29.7254H57.4901C57.4901 29.594 57.4638 29.4767 57.4112 29.3736C57.3596 29.2705 57.2858 29.1891 57.1898 29.1294C57.0948 29.0698 56.9825 29.04 56.8531 29.04C56.7106 29.04 56.5872 29.0754 56.4831 29.1461C56.38 29.2159 56.3006 29.3069 56.245 29.4191C56.1894 29.5313 56.1616 29.6516 56.1616 29.78V29.9863C56.1616 30.1622 56.1919 30.3113 56.2526 30.4337C56.3143 30.555 56.3997 30.6475 56.5089 30.7112C56.6181 30.7739 56.745 30.8052 56.8895 30.8052C56.9836 30.8052 57.0685 30.7921 57.1443 30.7658C57.2211 30.7385 57.2874 30.698 57.343 30.6444C57.3986 30.5899 57.4415 30.5221 57.4719 30.4412L57.8176 30.5383C57.7812 30.6556 57.7201 30.7587 57.6341 30.8477C57.5482 30.9356 57.442 31.0044 57.3157 31.0539C57.1893 31.1024 57.0472 31.1267 56.8895 31.1267ZM57.1504 28.4698L56.8349 28.0451L56.5195 28.4698H56.1798V28.4455L56.6711 27.8146H56.9987L57.4901 28.4455V28.4698H57.1504ZM56.8349 31.8486C56.7652 31.8486 56.705 31.8248 56.6545 31.7773C56.6049 31.7298 56.5802 31.6726 56.5802 31.6059C56.5802 31.5392 56.6049 31.4821 56.6545 31.4346C56.705 31.387 56.7652 31.3633 56.8349 31.3633C56.9047 31.3633 56.9643 31.387 57.0139 31.4346C57.0644 31.4821 57.0897 31.5392 57.0897 31.6059C57.0897 31.6726 57.0644 31.7298 57.0139 31.7773C56.9643 31.8248 56.9047 31.8486 56.8349 31.8486Z" fill="#FF3767"/>
<path d="M60.6779 30.1258V28.7488H61.0358V31.0782H60.6779V30.6839H60.6536C60.599 30.8022 60.5141 30.9028 60.3988 30.9857C60.2836 31.0676 60.138 31.1085 59.9621 31.1085C59.8165 31.1085 59.6871 31.0767 59.5738 31.013C59.4606 30.9483 59.3716 30.8512 59.3069 30.7218C59.2422 30.5914 59.2099 30.4271 59.2099 30.2289V28.7488H59.5678V30.2047C59.5678 30.3745 59.6153 30.51 59.7103 30.6111C59.8064 30.7122 59.9287 30.7627 60.0773 30.7627C60.1663 30.7627 60.2568 30.74 60.3488 30.6945C60.4418 30.649 60.5196 30.5792 60.5823 30.4852C60.646 30.3912 60.6779 30.2714 60.6779 30.1258Z" fill="#FF3767"/>
<path d="M65.4614 31.1267C65.2431 31.1267 65.055 31.0751 64.8973 30.972C64.7396 30.8689 64.6183 30.7268 64.5333 30.5459C64.4484 30.3649 64.406 30.1582 64.406 29.9256C64.406 29.689 64.4494 29.4803 64.5364 29.2993C64.6243 29.1173 64.7467 28.9753 64.9034 28.8732C65.0611 28.77 65.2451 28.7185 65.4554 28.7185C65.6192 28.7185 65.7668 28.7488 65.8982 28.8095C66.0296 28.8701 66.1373 28.955 66.2212 29.0642C66.3051 29.1734 66.3572 29.3008 66.3774 29.4464H66.0195C65.9922 29.3402 65.9316 29.2462 65.8375 29.1643C65.7445 29.0814 65.6192 29.04 65.4614 29.04C65.3219 29.04 65.1996 29.0764 65.0945 29.1492C64.9903 29.2209 64.9089 29.3226 64.8503 29.454C64.7927 29.5844 64.7639 29.7376 64.7639 29.9135C64.7639 30.0934 64.7922 30.2502 64.8488 30.3836C64.9064 30.5171 64.9873 30.6207 65.0914 30.6945C65.1966 30.7683 65.3199 30.8052 65.4614 30.8052C65.5545 30.8052 65.6389 30.789 65.7147 30.7567C65.7905 30.7243 65.8547 30.6778 65.9073 30.6172C65.9599 30.5565 65.9973 30.4837 66.0195 30.3988H66.3774C66.3572 30.5363 66.3072 30.6601 66.2273 30.7703C66.1484 30.8795 66.0438 30.9665 65.9134 31.0312C65.784 31.0949 65.6333 31.1267 65.4614 31.1267Z" fill="#FF3767"/>
<path d="M69.18 30.1258V28.7488H69.5379V31.0782H69.18V30.6839H69.1558C69.1012 30.8022 69.0162 30.9028 68.901 30.9857C68.7857 31.0676 68.6401 31.1085 68.4642 31.1085C68.3186 31.1085 68.1892 31.0767 68.076 31.013C67.9628 30.9483 67.8738 30.8512 67.8091 30.7218C67.7444 30.5914 67.712 30.4271 67.712 30.2289V28.7488H68.0699V30.2047C68.0699 30.3745 68.1174 30.51 68.2125 30.6111C68.3085 30.7122 68.4309 30.7627 68.5795 30.7627C68.6684 30.7627 68.7589 30.74 68.8509 30.6945C68.9439 30.649 69.0218 30.5792 69.0845 30.4852C69.1482 30.3912 69.18 30.2714 69.18 30.1258ZM68.4763 28.4334L68.0032 27.7297H68.4218L68.7918 28.4334H68.4763Z" fill="#FF3767"/>
<path d="M71.3627 29.6769V31.0782H71.0048V28.7488H71.3506V29.1128H71.3809C71.4355 28.9945 71.5184 28.8994 71.6296 28.8277C71.7408 28.7549 71.8844 28.7185 72.0603 28.7185C72.218 28.7185 72.356 28.7508 72.4743 28.8155C72.5926 28.8792 72.6846 28.9763 72.7503 29.1067C72.8161 29.2361 72.8489 29.3999 72.8489 29.5981V31.0782H72.491V29.6223C72.491 29.4393 72.4435 29.2968 72.3485 29.1947C72.2534 29.0915 72.123 29.04 71.9572 29.04C71.8429 29.04 71.7408 29.0647 71.6509 29.1143C71.5619 29.1638 71.4916 29.2361 71.4401 29.3311C71.3885 29.4262 71.3627 29.5414 71.3627 29.6769Z" fill="#FF3767"/>
<path d="M75.2545 32.0002C75.0817 32.0002 74.933 31.978 74.8087 31.9335C74.6843 31.89 74.5807 31.8324 74.4978 31.7606C74.4159 31.6898 74.3507 31.614 74.3022 31.5331L74.5873 31.3329C74.6196 31.3754 74.6606 31.4239 74.7101 31.4785C74.7597 31.5341 74.8274 31.5822 74.9133 31.6226C75.0003 31.6641 75.114 31.6848 75.2545 31.6848C75.4426 31.6848 75.5978 31.6393 75.7201 31.5483C75.8425 31.4573 75.9036 31.3148 75.9036 31.1206V30.6475H75.8733C75.847 30.6899 75.8096 30.7425 75.7611 30.8052C75.7135 30.8669 75.6448 30.922 75.5548 30.9705C75.4659 31.018 75.3455 31.0418 75.1939 31.0418C75.0058 31.0418 74.837 30.9973 74.6874 30.9083C74.5387 30.8194 74.421 30.6899 74.334 30.5201C74.2481 30.3502 74.2051 30.144 74.2051 29.9014C74.2051 29.6628 74.2471 29.455 74.331 29.2781C74.4149 29.1001 74.5317 28.9626 74.6813 28.8656C74.8309 28.7675 75.0038 28.7185 75.2 28.7185C75.3516 28.7185 75.4719 28.7437 75.5609 28.7943C75.6509 28.8438 75.7196 28.9005 75.7671 28.9641C75.8157 29.0268 75.8531 29.0784 75.8793 29.1188H75.9157V28.7488H76.2615V31.1449C76.2615 31.3451 76.216 31.5079 76.125 31.6332C76.035 31.7596 75.9137 31.8521 75.7611 31.9107C75.6094 31.9704 75.4406 32.0002 75.2545 32.0002ZM75.2424 30.7203C75.386 30.7203 75.5073 30.6874 75.6064 30.6217C75.7055 30.556 75.7808 30.4615 75.8323 30.3381C75.8839 30.2148 75.9097 30.0672 75.9097 29.8953C75.9097 29.7275 75.8844 29.5793 75.8339 29.4509C75.7833 29.3226 75.7085 29.222 75.6094 29.1492C75.5103 29.0764 75.388 29.04 75.2424 29.04C75.0908 29.04 74.9644 29.0784 74.8633 29.1552C74.7632 29.2321 74.6879 29.3352 74.6373 29.4646C74.5878 29.594 74.563 29.7376 74.563 29.8953C74.563 30.0571 74.5883 30.2001 74.6388 30.3245C74.6904 30.4478 74.7662 30.5449 74.8663 30.6156C74.9674 30.6854 75.0928 30.7203 75.2424 30.7203Z" fill="#FF3767"/>
<path d="M79.7891 31.0782V27.9723H80.147V29.1188H80.1773C80.2036 29.0784 80.24 29.0268 80.2865 28.9641C80.334 28.9005 80.4017 28.8438 80.4897 28.7943C80.5787 28.7437 80.699 28.7185 80.8506 28.7185C81.0468 28.7185 81.2196 28.7675 81.3693 28.8656C81.5189 28.9636 81.6357 29.1027 81.7196 29.2826C81.8035 29.4626 81.8455 29.6749 81.8455 29.9196C81.8455 30.1662 81.8035 30.3801 81.7196 30.561C81.6357 30.741 81.5194 30.8805 81.3708 30.9796C81.2222 31.0777 81.0508 31.1267 80.8567 31.1267C80.7071 31.1267 80.5872 31.1019 80.4973 31.0524C80.4073 31.0018 80.338 30.9447 80.2895 30.881C80.241 30.8163 80.2036 30.7627 80.1773 30.7203H80.1348V31.0782H79.7891ZM80.1409 29.9135C80.1409 30.0894 80.1667 30.2446 80.2182 30.3791C80.2698 30.5125 80.3451 30.6172 80.4442 30.693C80.5433 30.7678 80.6646 30.8052 80.8082 30.8052C80.9578 30.8052 81.0826 30.7658 81.1827 30.6869C81.2838 30.607 81.3597 30.4999 81.4102 30.3654C81.4618 30.2299 81.4876 30.0793 81.4876 29.9135C81.4876 29.7497 81.4623 29.6021 81.4117 29.4707C81.3622 29.3382 81.2869 29.2336 81.1858 29.1567C81.0857 29.0789 80.9598 29.04 80.8082 29.04C80.6626 29.04 80.5402 29.0769 80.4412 29.1507C80.3421 29.2235 80.2673 29.3256 80.2167 29.457C80.1662 29.5874 80.1409 29.7396 80.1409 29.9135Z" fill="#FF3767"/>
<path d="M83.8898 31.1328C83.7422 31.1328 83.6082 31.105 83.4879 31.0494C83.3676 30.9927 83.272 30.9114 83.2013 30.8052C83.1305 30.698 83.0951 30.5686 83.0951 30.417C83.0951 30.2835 83.1214 30.1753 83.174 30.0924C83.2266 30.0085 83.2968 29.9428 83.3848 29.8953C83.4727 29.8478 83.5698 29.8124 83.6759 29.7891C83.7831 29.7649 83.8908 29.7457 83.999 29.7315C84.1405 29.7133 84.2553 29.6997 84.3432 29.6906C84.4322 29.6804 84.4969 29.6638 84.5373 29.6405C84.5788 29.6173 84.5995 29.5768 84.5995 29.5192V29.5071C84.5995 29.3574 84.5586 29.2412 84.4767 29.1583C84.3958 29.0754 84.2729 29.0339 84.1082 29.0339C83.9373 29.0339 83.8033 29.0713 83.7063 29.1461C83.6092 29.2209 83.541 29.3008 83.5015 29.3857L83.1618 29.2644C83.2225 29.1229 83.3034 29.0127 83.4045 28.9338C83.5066 28.8539 83.6178 28.7983 83.7381 28.767C83.8595 28.7346 83.9787 28.7185 84.096 28.7185C84.1708 28.7185 84.2568 28.7276 84.3538 28.7458C84.4519 28.763 84.5464 28.7988 84.6374 28.8534C84.7294 28.908 84.8058 28.9904 84.8664 29.1006C84.9271 29.2108 84.9574 29.3584 84.9574 29.5435V31.0782H84.5995V30.7627H84.5813C84.5571 30.8133 84.5166 30.8674 84.46 30.925C84.4034 30.9826 84.3281 31.0317 84.234 31.0721C84.14 31.1125 84.0253 31.1328 83.8898 31.1328ZM83.9444 30.8113C84.0859 30.8113 84.2052 30.7835 84.3023 30.7279C84.4003 30.6723 84.4741 30.6005 84.5237 30.5125C84.5742 30.4246 84.5995 30.332 84.5995 30.235V29.9074C84.5843 29.9256 84.551 29.9423 84.4994 29.9575C84.4489 29.9716 84.3902 29.9843 84.3235 29.9954C84.2578 30.0055 84.1936 30.0146 84.1309 30.0227C84.0692 30.0298 84.0192 30.0358 83.9808 30.0409C83.8878 30.053 83.8008 30.0727 83.7199 30.1C83.6401 30.1263 83.5754 30.1662 83.5258 30.2198C83.4773 30.2724 83.453 30.3442 83.453 30.4352C83.453 30.5595 83.499 30.6535 83.591 30.7172C83.684 30.7799 83.8018 30.8113 83.9444 30.8113ZM84.1021 31.8486C84.0323 31.8486 83.9722 31.8248 83.9216 31.7773C83.8721 31.7298 83.8473 31.6726 83.8473 31.6059C83.8473 31.5392 83.8721 31.4821 83.9216 31.4346C83.9722 31.387 84.0323 31.3633 84.1021 31.3633C84.1719 31.3633 84.2315 31.387 84.281 31.4346C84.3316 31.4821 84.3569 31.5392 84.3569 31.6059C84.3569 31.6726 84.3316 31.7298 84.281 31.7773C84.2315 31.8248 84.1719 31.8486 84.1021 31.8486Z" fill="#FF3767"/>
<path d="M86.7799 29.6769V31.0782H86.422V28.7488H86.7678V29.1128H86.7981C86.8527 28.9945 86.9356 28.8994 87.0469 28.8277C87.1581 28.7549 87.3016 28.7185 87.4775 28.7185C87.6353 28.7185 87.7733 28.7508 87.8915 28.8155C88.0098 28.8792 88.1018 28.9763 88.1676 29.1067C88.2333 29.2361 88.2661 29.3999 88.2661 29.5981V31.0782H87.9082V29.6223C87.9082 29.4393 87.8607 29.2968 87.7657 29.1947C87.6706 29.0915 87.5402 29.04 87.3744 29.04C87.2602 29.04 87.1581 29.0647 87.0681 29.1143C86.9791 29.1638 86.9088 29.2361 86.8573 29.3311C86.8057 29.4262 86.7799 29.5414 86.7799 29.6769Z" fill="#FF3767"/>
<path d="M92.0776 30.2289L92.0716 29.7861H92.1444L93.1635 28.7488H93.6063L92.5205 29.8468H92.4902L92.0776 30.2289ZM91.744 31.0782V27.9723H92.1019V31.0782H91.744ZM93.2241 31.0782L92.3142 29.9256L92.569 29.6769L93.6791 31.0782H93.2241Z" fill="#FF3767"/>
<path d="M95.2362 29.6769V31.0782H94.8783V27.9723H95.2362V29.1128H95.2666C95.3212 28.9925 95.403 28.8969 95.5122 28.8261C95.6224 28.7544 95.769 28.7185 95.952 28.7185C96.1108 28.7185 96.2498 28.7503 96.3691 28.814C96.4884 28.8767 96.5809 28.9732 96.6466 29.1037C96.7133 29.2331 96.7467 29.3979 96.7467 29.5981V31.0782H96.3888V29.6223C96.3888 29.4373 96.3408 29.2942 96.2447 29.1931C96.1497 29.091 96.0177 29.04 95.8489 29.04C95.7316 29.04 95.6265 29.0647 95.5335 29.1143C95.4415 29.1638 95.3687 29.2361 95.3151 29.3311C95.2625 29.4262 95.2362 29.5414 95.2362 29.6769Z" fill="#FF3767"/>
<path d="M100.105 28.5729H100.439C100.439 28.8034 100.389 28.9864 100.287 29.1219C100.187 29.2573 100.011 29.3251 99.7597 29.3251V29.0703C99.8608 29.0703 99.9356 29.0496 99.9841 29.0081C100.034 28.9667 100.066 28.9085 100.081 28.8337C100.097 28.7589 100.105 28.672 100.105 28.5729ZM99.1592 31.1267C98.9489 31.1267 98.7644 31.0767 98.6056 30.9766C98.4479 30.8765 98.3246 30.7365 98.2356 30.5565C98.1476 30.3765 98.1037 30.1662 98.1037 29.9256C98.1037 29.683 98.1476 29.4712 98.2356 29.2902C98.3246 29.1092 98.4479 28.9687 98.6056 28.8686C98.7644 28.7685 98.9489 28.7185 99.1592 28.7185C99.3694 28.7185 99.5534 28.7685 99.7112 28.8686C99.8699 28.9687 99.9932 29.1092 100.081 29.2902C100.17 29.4712 100.215 29.683 100.215 29.9256C100.215 30.1662 100.17 30.3765 100.081 30.5565C99.9932 30.7365 99.8699 30.8765 99.7112 30.9766C99.5534 31.0767 99.3694 31.1267 99.1592 31.1267ZM99.1592 30.8052C99.3189 30.8052 99.4503 30.7643 99.5534 30.6824C99.6566 30.6005 99.7329 30.4928 99.7824 30.3593C99.832 30.2259 99.8568 30.0813 99.8568 29.9256C99.8568 29.7699 99.832 29.6248 99.7824 29.4904C99.7329 29.3559 99.6566 29.2472 99.5534 29.1643C99.4503 29.0814 99.3189 29.04 99.1592 29.04C98.9994 29.04 98.868 29.0814 98.7649 29.1643C98.6617 29.2472 98.5854 29.3559 98.5359 29.4904C98.4863 29.6248 98.4616 29.7699 98.4616 29.9256C98.4616 30.0813 98.4863 30.2259 98.5359 30.3593C98.5854 30.4928 98.6617 30.6005 98.7649 30.6824C98.868 30.7643 98.9994 30.8052 99.1592 30.8052ZM99.3169 28.4334H99.0196V28.1058C99.1258 28.0997 99.2006 28.0851 99.2441 28.0618C99.2886 28.0386 99.3108 28.0027 99.3108 27.9541C99.3108 27.8996 99.279 27.8596 99.2153 27.8343C99.1516 27.8091 99.0742 27.7964 98.9832 27.7964L98.9954 27.5659C99.2047 27.5659 99.3629 27.6023 99.47 27.6751C99.5782 27.7479 99.6323 27.845 99.6323 27.9663C99.6323 28.0694 99.5994 28.1447 99.5337 28.1922C99.468 28.2398 99.3957 28.2696 99.3169 28.2817V28.4334Z" fill="#FF3767"/>
<path d="M101.577 31.0782V28.7488H101.934V31.0782H101.577ZM101.759 28.3606C101.689 28.3606 101.629 28.3368 101.578 28.2893C101.529 28.2418 101.504 28.1847 101.504 28.1179C101.504 28.0512 101.529 27.9941 101.578 27.9466C101.629 27.899 101.689 27.8753 101.759 27.8753C101.828 27.8753 101.888 27.899 101.937 27.9466C101.988 27.9941 102.013 28.0512 102.013 28.1179C102.013 28.1847 101.988 28.2418 101.937 28.2893C101.888 28.3368 101.828 28.3606 101.759 28.3606Z" fill="#FF3767"/>
<path d="M105.772 29.6769V31.0782H105.414V28.7488H105.76V29.1128H105.79C105.845 28.9945 105.927 28.8994 106.039 28.8277C106.15 28.7549 106.293 28.7185 106.469 28.7185C106.627 28.7185 106.765 28.7508 106.883 28.8155C107.002 28.8792 107.094 28.9763 107.159 29.1067C107.225 29.2361 107.258 29.3999 107.258 29.5981V31.0782H106.9V29.6223C106.9 29.4393 106.852 29.2968 106.757 29.1947C106.662 29.0915 106.532 29.04 106.366 29.04C106.252 29.04 106.15 29.0647 106.06 29.1143C105.971 29.1638 105.901 29.2361 105.849 29.3311C105.798 29.4262 105.772 29.5414 105.772 29.6769Z" fill="#FF3767"/>
<path d="M109.664 32.0002C109.491 32.0002 109.342 31.978 109.218 31.9335C109.093 31.89 108.99 31.8324 108.907 31.7606C108.825 31.6898 108.76 31.614 108.711 31.5331L108.996 31.3329C109.029 31.3754 109.07 31.4239 109.119 31.4785C109.169 31.5341 109.236 31.5822 109.322 31.6226C109.409 31.6641 109.523 31.6848 109.664 31.6848C109.852 31.6848 110.007 31.6393 110.129 31.5483C110.251 31.4573 110.313 31.3148 110.313 31.1206V30.6475H110.282C110.256 30.6899 110.219 30.7425 110.17 30.8052C110.123 30.8669 110.054 30.922 109.964 30.9705C109.875 31.018 109.755 31.0418 109.603 31.0418C109.415 31.0418 109.246 30.9973 109.096 30.9083C108.948 30.8194 108.83 30.6899 108.743 30.5201C108.657 30.3502 108.614 30.144 108.614 29.9014C108.614 29.6628 108.656 29.455 108.74 29.2781C108.824 29.1001 108.941 28.9626 109.09 28.8656C109.24 28.7675 109.413 28.7185 109.609 28.7185C109.761 28.7185 109.881 28.7437 109.97 28.7943C110.06 28.8438 110.129 28.9005 110.176 28.9641C110.225 29.0268 110.262 29.0784 110.288 29.1188H110.325V28.7488H110.671V31.1449C110.671 31.3451 110.625 31.5079 110.534 31.6332C110.444 31.7596 110.323 31.8521 110.17 31.9107C110.018 31.9704 109.85 32.0002 109.664 32.0002ZM109.651 30.7203C109.795 30.7203 109.916 30.6874 110.015 30.6217C110.114 30.556 110.19 30.4615 110.241 30.3381C110.293 30.2148 110.319 30.0672 110.319 29.8953C110.319 29.7275 110.293 29.5793 110.243 29.4509C110.192 29.3226 110.118 29.222 110.018 29.1492C109.919 29.0764 109.797 29.04 109.651 29.04C109.5 29.04 109.373 29.0784 109.272 29.1552C109.172 29.2321 109.097 29.3352 109.046 29.4646C108.997 29.594 108.972 29.7376 108.972 29.8953C108.972 30.0571 108.997 30.2001 109.048 30.3245C109.099 30.4478 109.175 30.5449 109.275 30.6156C109.376 30.6854 109.502 30.7203 109.651 30.7203Z" fill="#FF3767"/>
<path d="M112.495 29.6769V31.0782H112.137V27.9723H112.495V29.1128H112.525C112.58 28.9925 112.662 28.8969 112.771 28.8261C112.881 28.7544 113.028 28.7185 113.211 28.7185C113.369 28.7185 113.508 28.7503 113.628 28.814C113.747 28.8767 113.84 28.9732 113.905 29.1037C113.972 29.2331 114.005 29.3979 114.005 29.5981V31.0782H113.647V29.6223C113.647 29.4373 113.599 29.2942 113.503 29.1931C113.408 29.091 113.276 29.04 113.108 29.04C112.99 29.04 112.885 29.0647 112.792 29.1143C112.7 29.1638 112.627 29.2361 112.574 29.3311C112.521 29.4262 112.495 29.5414 112.495 29.6769Z" fill="#FF3767"/>
<path d="M115.472 31.0782V28.7488H115.829V31.0782H115.472ZM115.654 28.3606C115.584 28.3606 115.524 28.3368 115.473 28.2893C115.424 28.2418 115.399 28.1847 115.399 28.1179C115.399 28.0512 115.424 27.9941 115.473 27.9466C115.524 27.899 115.584 27.8753 115.654 27.8753C115.723 27.8753 115.783 27.899 115.832 27.9466C115.883 27.9941 115.908 28.0512 115.908 28.1179C115.908 28.1847 115.883 28.2418 115.832 28.2893C115.783 28.3368 115.723 28.3606 115.654 28.3606Z" fill="#FF3767"/>
<path d="M118.273 31.1267C118.049 31.1267 117.855 31.0772 117.692 30.9781C117.53 30.878 117.406 30.7385 117.318 30.5595C117.231 30.3796 117.187 30.1703 117.187 29.9317C117.187 29.6931 117.231 29.4828 117.318 29.3008C117.406 29.1178 117.528 28.9753 117.685 28.8732C117.842 28.77 118.026 28.7185 118.237 28.7185C118.358 28.7185 118.478 28.7387 118.596 28.7791C118.714 28.8196 118.822 28.8853 118.919 28.9763C119.016 29.0663 119.093 29.1856 119.151 29.3342C119.209 29.4828 119.238 29.6658 119.238 29.8832V30.0348H117.442V29.7254H118.874C118.874 29.594 118.847 29.4767 118.795 29.3736C118.743 29.2705 118.669 29.1891 118.573 29.1294C118.478 29.0698 118.366 29.04 118.237 29.04C118.094 29.04 117.971 29.0754 117.867 29.1461C117.763 29.2159 117.684 29.3069 117.629 29.4191C117.573 29.5313 117.545 29.6516 117.545 29.78V29.9863C117.545 30.1622 117.575 30.3113 117.636 30.4337C117.698 30.555 117.783 30.6475 117.892 30.7112C118.002 30.7739 118.128 30.8052 118.273 30.8052C118.367 30.8052 118.452 30.7921 118.528 30.7658C118.605 30.7385 118.671 30.698 118.726 30.6444C118.782 30.5899 118.825 30.5221 118.855 30.4412L119.201 30.5383C119.165 30.6556 119.104 30.7587 119.018 30.8477C118.932 30.9356 118.826 31.0044 118.699 31.0539C118.573 31.1024 118.431 31.1267 118.273 31.1267ZM118.534 28.4698L118.218 28.0451L117.903 28.4698H117.563V28.4455L118.055 27.8146H118.382L118.874 28.4455V28.4698H118.534ZM118.218 31.8486C118.149 31.8486 118.089 31.8248 118.038 31.7773C117.988 31.7298 117.964 31.6726 117.964 31.6059C117.964 31.5392 117.988 31.4821 118.038 31.4346C118.089 31.387 118.149 31.3633 118.218 31.3633C118.288 31.3633 118.348 31.387 118.397 31.4346C118.448 31.4821 118.473 31.5392 118.473 31.6059C118.473 31.6726 118.448 31.7298 118.397 31.7773C118.348 31.8248 118.288 31.8486 118.218 31.8486Z" fill="#FF3767"/>
<path d="M120.593 31.9517V28.7488H120.939V29.1188H120.982C121.008 29.0784 121.044 29.0268 121.091 28.9641C121.138 28.9005 121.206 28.8438 121.294 28.7943C121.383 28.7437 121.503 28.7185 121.655 28.7185C121.851 28.7185 122.024 28.7675 122.174 28.8656C122.323 28.9636 122.44 29.1027 122.524 29.2826C122.608 29.4626 122.65 29.6749 122.65 29.9196C122.65 30.1662 122.608 30.3801 122.524 30.561C122.44 30.741 122.324 30.8805 122.175 30.9796C122.026 31.0777 121.855 31.1267 121.661 31.1267C121.511 31.1267 121.392 31.1019 121.302 31.0524C121.212 31.0018 121.142 30.9447 121.094 30.881C121.045 30.8163 121.008 30.7627 120.982 30.7203H120.951V31.9517H120.593ZM120.945 29.9135C120.945 30.0894 120.971 30.2446 121.023 30.3791C121.074 30.5125 121.149 30.6172 121.248 30.693C121.348 30.7678 121.469 30.8052 121.612 30.8052C121.762 30.8052 121.887 30.7658 121.987 30.6869C122.088 30.607 122.164 30.4999 122.215 30.3654C122.266 30.2299 122.292 30.0793 122.292 29.9135C122.292 29.7497 122.267 29.6021 122.216 29.4707C122.166 29.3382 122.091 29.2336 121.99 29.1567C121.89 29.0789 121.764 29.04 121.612 29.04C121.467 29.04 121.345 29.0769 121.245 29.1507C121.146 29.2235 121.072 29.3256 121.021 29.457C120.97 29.5874 120.945 29.7396 120.945 29.9135Z" fill="#FF3767"/>
<path d="M26.4784 21.9789C25.9925 21.9789 25.5522 21.8423 25.1574 21.5689C24.7626 21.3108 24.4514 20.9692 24.2236 20.544C23.9958 20.1037 23.882 19.633 23.882 19.1319C23.882 18.1905 24.0869 17.2719 24.4969 16.376C24.9221 15.4801 25.4763 14.6298 26.1596 13.8251C26.8428 13.0203 27.5869 12.2839 28.3916 11.6158C29.2116 10.9325 30.0239 10.3479 30.8287 9.86204C31.6486 9.37615 32.3926 8.99655 33.0607 8.72324C33.744 8.44992 34.2754 8.31327 34.655 8.31327C35.0954 8.31327 35.4522 8.41196 35.7255 8.60936C36.014 8.79157 36.1583 9.08006 36.1583 9.47485C36.1583 9.59632 36.1279 9.69502 36.0672 9.77094C36.2646 9.81649 36.424 9.93037 36.5455 10.1126C36.6669 10.2948 36.7277 10.5681 36.7277 10.9325C36.7277 11.0844 36.6897 11.4791 36.6138 12.1169C36.5379 12.7546 36.4544 13.529 36.3632 14.44C36.2873 15.3511 36.2494 16.3001 36.2494 17.287C36.2494 17.4389 36.2721 17.5755 36.3177 17.697C36.3632 17.8033 36.4619 17.8564 36.6138 17.8564C37.2211 17.8564 37.8361 17.735 38.4586 17.492C39.0964 17.2339 39.7113 16.9226 40.3035 16.5582C40.9109 16.1786 41.4575 15.8066 41.9434 15.4422C42.4445 15.0626 42.862 14.7513 43.1961 14.5084C43.5453 14.2502 43.7731 14.1212 43.8794 14.1212C44.3956 14.1212 44.6537 14.3793 44.6537 14.8956C44.6537 15.0322 44.4867 15.3207 44.1527 15.761C43.8338 16.1862 43.3935 16.6797 42.8317 17.2415C42.2698 17.7881 41.6397 18.3347 40.9412 18.8814C40.258 19.4128 39.5443 19.8531 38.8003 20.2024C38.0715 20.5516 37.3654 20.7262 36.6821 20.7262C35.847 20.7262 35.2093 20.5288 34.7689 20.1341C34.3438 19.7393 34.0401 19.2078 33.8579 18.5397C33.6909 17.8564 33.5998 17.0897 33.5846 16.2393C32.8102 17.3478 32.0054 18.3347 31.1703 19.2002C30.3504 20.0505 29.538 20.7262 28.7333 21.2273C27.9285 21.7284 27.1769 21.9789 26.4784 21.9789ZM34.5412 10.5681C33.0531 11.2818 31.7169 12.1017 30.5326 13.0279C29.3482 13.939 28.4068 14.8956 27.7083 15.8977C27.0251 16.8999 26.6834 17.864 26.6834 18.7903C26.6834 19.0484 26.8049 19.1775 27.0478 19.1775C27.3363 19.1775 27.7159 19.0104 28.1866 18.6764C28.6725 18.3423 29.1964 17.902 29.7582 17.3554C30.32 16.7936 30.8818 16.171 31.4436 15.4877C32.0054 14.7893 32.5293 14.0756 33.0152 13.3468C33.5011 12.6179 33.8882 11.9195 34.1767 11.2514C34.283 11.0084 34.4045 10.7807 34.5412 10.5681Z" fill="#FF3767"/>
<path d="M41.2457 22.1156C40.8661 22.1156 40.5396 21.9789 40.2663 21.7056C40.0082 21.4323 39.8791 21.0375 39.8791 20.5212C39.8791 20.2935 39.9095 19.9215 39.9702 19.4052C40.0462 18.8738 40.1373 18.2664 40.2435 17.5831C40.365 16.8999 40.4789 16.1862 40.5852 15.4422C40.7067 14.6982 40.8054 13.9921 40.8813 13.324C40.9724 12.6559 41.0331 12.0865 41.0635 11.6158C41.0939 11.0388 41.2457 10.6288 41.519 10.3859C41.7923 10.1278 42.1188 9.9987 42.4984 9.9987C42.8021 9.9987 43.0754 10.0746 43.3183 10.2265C43.5764 10.3631 43.7359 10.6592 43.7966 11.1147C43.8725 11.5551 43.8801 12.1928 43.8194 13.0279C44.4875 11.8132 45.1632 10.7275 45.8465 9.77094C46.5449 8.81434 47.2738 8.05514 48.033 7.49333C49.2932 6.53673 50.432 6.05844 51.4494 6.05844C52.0264 6.05844 52.406 6.1875 52.5882 6.44563C52.7704 6.70376 52.8615 6.96948 52.8615 7.24279C52.8615 7.425 52.8159 7.59203 52.7248 7.74387C52.6489 7.89571 52.4819 8.05514 52.2238 8.22216C51.9656 8.38919 51.5708 8.60936 51.0394 8.88267C50.3258 9.24709 49.6197 9.72539 48.9212 10.3176C48.2379 10.9097 47.5547 11.6689 46.8714 12.5952C46.1881 13.5214 45.4972 14.6602 44.7988 16.0116C44.1003 17.363 43.3791 18.9725 42.635 20.8401C42.4984 21.3564 42.301 21.698 42.0429 21.865C41.7999 22.0321 41.5342 22.1156 41.2457 22.1156Z" fill="#FF3767"/>
<path d="M62.8406 22.7761C61.8081 22.7761 60.8515 22.5559 59.9708 22.1156C59.0902 21.6904 58.2854 21.1286 57.5566 20.4301C56.8277 19.7165 56.1748 18.9421 55.5978 18.107C55.036 17.2567 54.5577 16.4216 54.1629 15.6016C53.9807 16.4367 53.8137 17.1504 53.6619 17.7426C53.5252 18.3347 53.4113 18.8282 53.3202 19.223C53.2443 19.5267 53.1608 19.8228 53.0697 20.1113C52.9938 20.3998 52.8723 20.6351 52.7053 20.8173C52.5382 20.9995 52.3029 21.0906 51.9992 21.0906C51.3463 21.0906 50.9287 20.8705 50.7465 20.4301C50.5643 19.9746 50.4732 19.3976 50.4732 18.6992C50.4732 18.0766 50.5719 17.2567 50.7693 16.2393C50.9819 15.222 51.2628 14.0832 51.612 12.8229C51.9612 11.5627 52.3636 10.2644 52.8191 8.92822C53.2898 7.57684 53.7909 6.26342 54.3224 4.98796C54.8538 3.69732 55.3852 2.52814 55.9167 1.48045C56.2507 0.842715 56.5468 0.440338 56.805 0.273313C57.0631 0.0911045 57.3668 0 57.716 0C58.0652 0 58.331 0.0911045 58.5132 0.273313C58.6954 0.455522 58.7865 0.698466 58.7865 1.00215C58.7865 1.19954 58.7409 1.39693 58.6498 1.59433C58.5587 1.79172 58.46 2.03466 58.3537 2.32316C58.0045 3.09755 57.6401 4.001 57.2605 5.03351C56.8809 6.05084 56.5165 7.10614 56.1672 8.19939C55.818 9.27746 55.5067 10.3024 55.2334 11.2742C55.9774 10.8338 56.805 10.4087 57.716 9.9987C58.627 9.57354 59.5457 9.19394 60.4719 8.85989C61.4133 8.51066 62.294 8.23735 63.1139 8.03996C63.9339 7.84256 64.6247 7.74387 65.1866 7.74387C65.6269 7.74387 65.9609 7.87293 66.1887 8.13106C66.4165 8.38919 66.5303 8.67009 66.5303 8.97377C66.5303 9.20154 66.462 9.4293 66.3254 9.65706C66.1887 9.88482 65.9002 10.0822 65.4599 10.2492C64.0022 10.7351 62.5521 11.2286 61.1096 11.7297C59.6823 12.2308 58.0956 12.8229 56.3494 13.5062C56.7139 14.2199 57.139 14.9563 57.6249 15.7155C58.1108 16.4595 58.6346 17.158 59.1964 17.8109C59.7583 18.4486 60.3352 18.9725 60.9274 19.3824C61.5196 19.7772 62.1042 19.9746 62.6812 19.9746C63.5315 19.9746 64.3514 19.8076 65.141 19.4735C65.9306 19.1243 66.6594 18.7068 67.3275 18.2209C67.9956 17.7198 68.5802 17.2339 69.0813 16.7632C69.5975 16.2925 69.9999 15.9281 70.2884 15.6699C70.4554 15.5029 70.6149 15.3814 70.7667 15.3055C70.9337 15.2296 71.1387 15.1916 71.3816 15.1916C71.6701 15.1916 71.8903 15.2827 72.0422 15.465C72.2092 15.632 72.2851 15.8522 72.2699 16.1255C72.2547 16.3836 72.1257 16.6417 71.8827 16.8999C71.6853 17.1124 71.3741 17.4541 70.9489 17.9248C70.5389 18.3803 70.0379 18.889 69.4457 19.4508C68.8687 19.9974 68.2234 20.5288 67.5097 21.0451C66.8112 21.5462 66.0672 21.9561 65.2777 22.275C64.4881 22.6091 63.6757 22.7761 62.8406 22.7761Z" fill="#FF3767"/>
<path d="M81.3704 21.9334C80.7478 21.9334 80.2771 21.8347 79.9583 21.6373C79.6546 21.4551 79.4496 21.2425 79.3433 20.9995C79.2522 20.7566 79.2067 20.5668 79.2067 20.4301C79.2067 19.9898 79.404 19.6254 79.7988 19.3369C80.2088 19.0332 80.6643 18.8814 81.1654 18.8814C81.6513 18.8814 82.2511 18.813 82.9647 18.6764C83.6935 18.5245 84.4603 18.312 85.2651 18.0387C86.085 17.7653 86.867 17.4237 87.611 17.0137C88.3702 16.6038 89.0307 16.1331 89.5925 15.6016C90.1544 15.0702 90.5415 14.4856 90.7541 13.8479C90.4201 13.7871 90.086 13.7416 89.752 13.7112C89.4179 13.6656 89.0839 13.6429 88.7498 13.6429C87.6262 13.6429 86.4646 13.7643 85.2651 14.0073C84.0655 14.2502 82.8736 14.4856 81.6892 14.7133C81.4007 14.7741 81.1426 14.7209 80.9149 14.5539C80.8845 14.8728 80.8541 15.1689 80.8238 15.4422C80.8086 15.7003 80.7934 15.9812 80.7782 16.2849C80.7478 17.0289 80.6795 17.6059 80.5732 18.0159C80.4821 18.4107 80.3758 18.6916 80.2544 18.8586C80.1329 19.0256 80.0038 19.1243 79.8672 19.1547C79.7305 19.185 79.6014 19.2002 79.48 19.2002C79.4344 19.2002 79.404 19.2002 79.3889 19.2002C79.1155 19.2002 78.8574 19.1319 78.6145 18.9952C78.3715 18.8586 78.1741 18.5777 78.0223 18.1525C77.8705 17.7122 77.7945 17.0517 77.7945 16.171C77.7945 13.3771 78.0982 11.0084 78.7056 9.06488C79.3281 7.10614 80.2164 5.6181 81.3704 4.60077C82.5396 3.56825 83.9365 3.05199 85.5612 3.05199C86.8366 3.05199 87.8312 3.40123 88.5448 4.09969C89.2585 4.78298 89.6153 5.76994 89.6153 7.06058C89.6153 7.7135 89.4863 8.36641 89.2281 9.01933C88.97 9.67224 88.6056 10.3176 88.1349 10.9553C88.4234 10.8946 88.7043 10.849 88.9776 10.8186C89.2509 10.7731 89.509 10.7503 89.752 10.7503C91.1793 10.7503 92.2346 11.0084 92.9178 11.5247C93.6011 12.0258 93.9428 12.7015 93.9428 13.5518C93.9428 14.4021 93.6998 15.1992 93.2139 15.9433C92.7432 16.6873 92.1131 17.3706 91.3235 17.9931C90.5491 18.6005 89.6912 19.1547 88.7498 19.6558C87.8084 20.1416 86.867 20.5592 85.9256 20.9084C84.9842 21.2425 84.1111 21.493 83.3063 21.6601C82.5016 21.8423 81.8563 21.9334 81.3704 21.9334ZM81.1882 12.208C81.2793 12.1624 81.378 12.1321 81.4843 12.1169C82.8508 11.8891 83.8985 11.5778 84.6274 11.1831C85.3562 10.7883 85.8573 10.2948 86.1306 9.70261C86.4039 9.11043 86.5406 8.40437 86.5406 7.58443C86.5406 7.37186 86.5102 7.1441 86.4494 6.90115C86.3887 6.65821 86.2672 6.45322 86.085 6.2862C85.918 6.10399 85.6599 6.01288 85.3106 6.01288C84.1567 6.01288 83.2532 6.53673 82.6003 7.58443C81.9626 8.61695 81.4919 10.1581 81.1882 12.208Z" fill="#FF3767"/>
<path d="M99.3649 21.865C98.2868 21.865 97.4213 21.4854 96.7684 20.7262C96.1155 19.9518 95.7891 18.9193 95.7891 17.6287C95.7891 17.2187 95.8422 16.8012 95.9485 16.376C96.07 15.9508 96.2142 15.5561 96.3812 15.1916C96.2901 15.055 96.2142 14.8804 96.1535 14.6678C96.1079 14.44 96.0852 14.1743 96.0852 13.8706C96.0852 12.8837 96.2598 11.9802 96.609 11.1603C96.9582 10.3252 97.4289 9.60391 98.0211 8.99655C98.6133 8.38919 99.2662 7.91848 99.9799 7.58443C100.694 7.25038 101.415 7.08336 102.144 7.08336C103.389 7.08336 104.406 7.50092 105.196 8.33604C106 9.17117 106.403 10.4694 106.403 12.2308C106.403 13.1114 106.266 14.0073 105.993 14.9183C105.719 15.8294 105.347 16.7025 104.877 17.5376C104.421 18.3575 103.89 19.0939 103.282 19.7469C102.69 20.3998 102.052 20.916 101.369 21.2956C100.701 21.6752 100.033 21.865 99.3649 21.865ZM99.0005 14.1667C99.0764 14.3337 99.1144 14.5311 99.1144 14.7589C99.1144 14.9867 99.0688 15.222 98.9777 15.465C98.8866 15.7079 98.7955 16.0344 98.7044 16.4443C98.6133 16.8391 98.5677 17.4085 98.5677 18.1525C98.5677 18.3499 98.5905 18.517 98.6361 18.6536C98.6968 18.7751 98.8259 18.8358 99.0233 18.8358C99.5395 18.8358 100.025 18.6688 100.481 18.3347C100.952 18.0007 101.369 17.5604 101.734 17.0137C102.113 16.4671 102.432 15.8597 102.69 15.1916C102.964 14.5084 103.169 13.8175 103.305 13.119C103.457 12.4054 103.533 11.7449 103.533 11.1375C103.533 10.7427 103.457 10.4694 103.305 10.3176C103.153 10.1657 102.888 10.0898 102.508 10.0898C101.992 10.0898 101.46 10.2568 100.914 10.5909C100.382 10.9097 99.9343 11.3501 99.5699 11.9119C99.2055 12.4585 99.0233 13.0811 99.0233 13.7795C99.0233 13.9162 99.0157 14.0452 99.0005 14.1667Z" fill="#FF3767"/>
<path d="M107.808 20.6579C107.444 20.6579 107.178 20.5364 107.011 20.2935C106.844 20.0354 106.776 19.7165 106.806 19.3369C106.821 19.1243 106.988 18.8206 107.307 18.4258C107.626 18.0159 108.043 17.5376 108.56 16.991C109.076 16.4291 109.645 15.8294 110.268 15.1916C110.906 14.5387 111.559 13.8782 112.227 13.2101C111.392 11.9802 110.761 10.9933 110.336 10.2492C109.926 9.50522 109.706 8.92063 109.676 8.49548C109.645 8.02477 109.721 7.64517 109.903 7.35667C110.101 7.06818 110.412 6.92393 110.837 6.92393C111.08 6.92393 111.331 7.03781 111.589 7.26557C111.862 7.49333 112.204 7.91089 112.614 8.51825C113.039 9.12562 113.601 9.98351 114.299 11.0919C115.347 10.0443 116.205 9.19394 116.873 8.54103C117.556 7.87293 118.103 7.35667 118.513 6.99226C118.938 6.62784 119.264 6.3773 119.492 6.24064C119.735 6.10399 119.94 6.03566 120.107 6.03566C120.472 6.03566 120.73 6.16472 120.882 6.42285C121.049 6.6658 121.117 6.98466 121.087 7.37945C121.056 7.69831 120.866 8.08551 120.517 8.54103C120.183 8.98137 119.75 9.46726 119.219 9.9987C118.687 10.515 118.11 11.054 117.488 11.6158C116.881 12.1624 116.288 12.7015 115.711 13.2329C116.653 14.5691 117.533 15.7383 118.353 16.7404C119.189 17.7274 119.864 18.5473 120.38 19.2002C120.897 19.838 121.162 20.3087 121.178 20.6124C121.208 20.9312 121.124 21.1818 120.927 21.364C120.745 21.5462 120.479 21.6373 120.13 21.6373C119.933 21.6373 119.69 21.5689 119.401 21.4323C119.113 21.2956 118.725 21.0147 118.24 20.5896C117.769 20.1644 117.161 19.5267 116.417 18.6764C115.689 17.8109 114.778 16.6493 113.684 15.1916C113.062 15.8294 112.439 16.4671 111.817 17.1048C111.209 17.7426 110.632 18.3347 110.086 18.8814C109.554 19.4128 109.084 19.8456 108.674 20.1796C108.279 20.4985 107.99 20.6579 107.808 20.6579Z" fill="#FF3767"/>
<path d="M19.2498 22.164C18.7819 22.164 18.427 22.0188 18.185 21.7284C17.9591 21.438 17.8462 21.0428 17.8462 20.5426C17.8462 20.1393 17.8623 19.7924 17.8946 19.502C17.9269 19.2117 17.9914 18.9051 18.0882 18.5825C18.185 18.2437 18.306 17.8323 18.4512 17.3483C18.6125 16.8482 18.8142 16.2109 19.0562 15.4365C19.2014 14.9848 19.3788 14.3959 19.5886 13.6699C19.8144 12.9278 20.0403 12.1212 20.2662 11.25C20.492 10.3627 20.6776 9.47535 20.8228 8.58804C20.9841 7.68459 21.0648 6.85373 21.0648 6.09548C21.0648 5.57922 20.9518 5.1033 20.726 4.6677C19.2256 6.15194 17.8059 8.08791 16.4668 10.4756C15.1439 12.8633 13.9662 15.6382 12.9337 18.8003C12.6272 19.5908 12.2722 20.1232 11.8689 20.3974C11.4656 20.6556 11.0784 20.7846 10.7073 20.7846C10.5944 20.7846 10.425 20.7201 10.1991 20.591C9.97327 20.4458 9.76355 20.1877 9.56995 19.8166C9.37635 19.4456 9.27955 18.9213 9.27955 18.2437C9.27955 18.0823 9.31989 17.8807 9.40055 17.6387C9.48122 17.3806 9.60221 17.1063 9.76355 16.8159C9.90874 15.977 10.0136 15.0816 10.0781 14.1297C10.1588 13.1618 10.2072 12.2018 10.2233 11.25C10.2556 10.282 10.2717 9.37856 10.2717 8.53964C10.2717 7.89432 10.2233 7.32966 10.1265 6.84567C9.33602 7.84592 8.58583 9.05589 7.87598 10.4756C7.16612 11.8953 6.5208 13.4038 5.94001 15.0009C5.37535 16.5981 4.9075 18.163 4.53644 19.6956C4.43964 20.0667 4.32671 20.4136 4.19764 20.7362C4.06858 21.0428 3.87498 21.2928 3.61685 21.4864C3.37485 21.6639 3.01993 21.7526 2.55207 21.7526C2.03581 21.7526 1.64862 21.5429 1.39049 21.1234C1.13236 20.704 1.0033 20.1474 1.0033 19.4536C1.0033 18.9213 1.11623 18.2356 1.34209 17.3967C1.56795 16.5416 1.87448 15.614 2.26167 14.6137C2.64887 13.5974 3.09253 12.5648 3.59265 11.5162C4.10891 10.4514 4.64937 9.42695 5.21402 8.44284C5.77868 7.45872 6.3514 6.57947 6.93219 5.80508C7.52912 5.01456 8.09377 4.39344 8.62616 3.94172C9.17469 3.47386 9.67481 3.23993 10.1265 3.23993C10.1427 3.23993 10.1669 3.23993 10.1991 3.23993C10.5541 3.23993 10.8767 3.2722 11.1671 3.33673C11.4736 3.38513 11.7398 3.55452 11.9657 3.84492C12.2077 4.11918 12.4174 4.57897 12.5949 5.22429C12.7724 5.86962 12.9256 6.78113 13.0547 7.95885C13.087 8.24924 13.1112 8.5961 13.1273 8.99943C13.1434 9.38662 13.1515 9.78995 13.1515 10.2094C13.6839 9.01556 14.2647 7.89432 14.8939 6.84567C15.5392 5.79702 16.2006 4.86937 16.8782 4.06271C17.5719 3.25606 18.2576 2.62687 18.9352 2.17515C19.6128 1.72342 20.242 1.49756 20.8228 1.49756C21.5003 1.49756 22.1295 1.66696 22.7103 2.00575C23.2911 2.32841 23.759 2.87694 24.1139 3.65132C24.4688 4.42571 24.6463 5.48242 24.6463 6.82147C24.6463 8.24118 24.5172 9.62055 24.2591 10.9596C24.001 12.2825 23.6783 13.5328 23.2911 14.7105C22.9039 15.8882 22.5167 16.9692 22.1295 17.9533C21.7423 18.9213 21.4197 19.7602 21.1615 20.47C20.9518 20.9702 20.7098 21.3816 20.4356 21.7042C20.1613 22.0107 19.766 22.164 19.2498 22.164Z" fill="#FF3767"/>
</svg>
